<svg width="1440" height="223" viewBox="0 0 1440 223" fill="none" xmlns="http://www.w3.org/2000/svg">
<path opacity="0.2" d="M-61 24.6397V383.31H1452.57V24.6397C1452.57 24.6397 1169.65 -34.4603 682.04 30.3997C188.27 96.0897 -61 24.6397 -61 24.6397Z" fill="white"/>
<path opacity="0.4" d="M-61 67.4898V383.32H1452.57C1452.57 383.32 1452.57 65.0198 1452.57 64.9998C1452.57 57.4098 1346.28 47.2698 1338.44 46.5298C1224.44 35.8798 1108.46 42.9498 996.31 59.0998C885.45 75.0698 780.49 104.19 670.48 121.54C554.63 139.81 432.37 145.21 313.9 138.91C188.3 132.23 52.58 113.09 -57.64 68.8698C-58.76 68.4098 -59.89 67.9598 -61 67.4898Z" fill="white"/>
<path opacity="0.6" d="M1452.57 91.6897V383.32H-61V85.9297C-61 85.9297 308.69 82.0397 658.18 150.03C998.28 216.19 1452.57 91.6897 1452.57 91.6897Z" fill="white"/>
<path opacity="0.8" d="M-61 192.02V383.31H1452.57V211.61C1452.57 211.61 1325.65 174.92 1139.38 185.5C1024.97 192 915.19 216.15 801.17 222.38C674.11 229.32 558.96 211.72 439.37 185.04C344.22 163.82 244.24 146.6 143.63 145.72C78.88 145.15 -16.22 150.57 -59.24 190.27C-59.85 190.84 -60.48 191.42 -61 192.02Z" fill="white"/>
</svg>
