<svg width="15" height="15" viewBox="0 0 15 15" fill="none" xmlns="http://www.w3.org/2000/svg">
<path d="M7.49528 2.35672e-06C11.6301 -0.00325391 15.0023 3.36829 15 7.5031C14.9977 11.6327 11.6346 14.9964 7.50472 15C3.37057 15.0033 -0.00292873 11.6304 1.908e-06 7.49626C0.00293255 3.36633 3.36568 0.00325863 7.49528 2.35672e-06ZM7.48877 13.7509C10.9398 13.7558 13.7431 10.9717 13.7509 7.53143C13.759 4.05829 10.9801 1.2566 7.5197 1.24878C4.06024 1.24097 1.25399 4.02768 1.24911 7.4764C1.2439 10.9473 4.02703 13.746 7.48877 13.7509Z" fill="white"/>
<path d="M9.08215 5.66775C8.84867 5.44926 8.64581 5.2656 8.44978 5.07479C8.16974 4.80256 8.21859 4.31087 8.54258 4.0953C8.76727 3.94584 9.07303 3.96407 9.28046 4.15522C9.88319 4.71008 10.4762 5.2757 11.0835 5.82568C11.3156 6.03604 11.328 6.56876 11.1157 6.75763C11.0232 6.84001 10.8796 6.90904 10.7591 6.90969C8.63181 6.91849 6.50449 6.91718 4.37717 6.9149C4.032 6.91458 3.75294 6.63161 3.75099 6.29621C3.74903 5.94779 4.03005 5.67003 4.40126 5.66938C5.87733 5.66678 7.3534 5.6684 8.82946 5.66808C8.89817 5.66775 8.96623 5.66775 9.08215 5.66775Z" fill="white"/>
<path d="M5.9166 9.33223C6.1465 9.54649 6.33634 9.72331 6.52618 9.90045C6.79677 10.1528 6.82869 10.5204 6.60205 10.7702C6.33992 11.059 5.96968 11.0773 5.6815 10.8102C5.10449 10.2762 4.53171 9.73763 3.95275 9.20588C3.7196 8.99162 3.70267 8.79657 3.80133 8.48267C3.87004 8.26352 4.11393 8.12187 4.38095 8.12187C6.46333 8.12155 8.54572 8.12122 10.6284 8.12252C10.9615 8.12285 11.2035 8.3179 11.2445 8.60901C11.2888 8.92194 11.096 9.2251 10.7903 9.30748C10.703 9.33093 10.6079 9.33125 10.5164 9.33125C9.0576 9.33255 7.59879 9.33223 6.13998 9.33223C6.08202 9.33223 6.02439 9.33223 5.9166 9.33223Z" fill="white"/>
</svg>
