<svg width="31" height="29" viewBox="0 0 31 29" fill="none" xmlns="http://www.w3.org/2000/svg">
<path d="M19.6439 18.0017C19.0844 18.5707 18.6171 19.0678 18.1239 19.5381C17.7571 19.8878 17.327 20.173 16.9772 20.5374C15.9398 21.6189 14.9138 22.7127 13.912 23.8277C13.3241 24.4822 13.3727 25.3225 13.4772 26.1074C13.6529 27.4303 14.4149 28.357 15.671 28.7865C16.94 29.2209 18.1142 28.9617 19.0706 28.0041C22.6775 24.3934 26.2715 20.7697 29.8638 17.1443C31.0778 15.9185 31.2972 14.321 30.434 12.9077C30.2048 12.5319 29.8752 12.2124 29.5642 11.8954C28.5317 10.8415 27.4797 9.80723 26.4488 8.75174C25.9629 8.25456 25.5143 7.7207 25.0365 7.21456C24.9134 7.08415 24.7239 7.01731 24.5976 6.88772C24.3344 6.61875 24.1085 6.31229 23.8412 6.0474C22.7115 4.92915 21.5713 3.82231 20.4384 2.70814C19.9274 2.20525 19.4463 1.66732 18.9119 1.19215C17.6259 0.0478153 15.6645 0.106499 14.4554 1.29484C13.1921 2.53779 13.065 4.48414 14.2182 5.82734C14.8603 6.57556 15.5876 7.25042 16.2824 7.95218C17.3206 9.00115 18.3636 10.0444 19.4034 11.0918C19.4577 11.1464 19.499 11.2124 19.601 11.3436C19.388 11.3436 19.2463 11.3436 19.1054 11.3436C14.1793 11.3444 9.25316 11.3395 4.32623 11.3469C2.38914 11.3501 0.935517 12.8441 0.970339 14.7684C1.00273 16.5648 2.46121 17.9854 4.31408 17.9993C6.04142 18.0123 7.76957 18.0026 9.49692 18.0026C12.6957 18.0026 15.8945 18.0026 19.0933 18.0026C19.2366 18.0017 19.3791 18.0017 19.6439 18.0017Z" fill="#E0B82A"/>
</svg>
