<svg width="31" height="29" viewBox="0 0 31 29" fill="none" xmlns="http://www.w3.org/2000/svg">
<path d="M19.3555 17.9637C18.7993 18.5291 18.3349 19.0233 17.8447 19.4907C17.4801 19.8382 17.0527 20.1217 16.705 20.4838C15.6739 21.5588 14.6541 22.646 13.6585 23.7542C13.0741 24.4047 13.1224 25.2399 13.2262 26.02C13.4009 27.3348 14.1583 28.2558 15.4067 28.6828C16.6679 29.1145 17.835 28.8569 18.7856 27.9051C22.3706 24.3164 25.9427 20.7147 29.5132 17.1114C30.7197 15.8931 30.9378 14.3053 30.0798 12.9006C29.852 12.5272 29.5244 12.2096 29.2153 11.8945C28.1891 10.847 27.1436 9.81902 26.1189 8.76995C25.636 8.2758 25.1901 7.74519 24.7152 7.24213C24.5929 7.11251 24.4045 7.04609 24.279 6.91728C24.0174 6.64995 23.7928 6.34536 23.5272 6.08208C22.4044 4.97064 21.2711 3.87053 20.1451 2.76314C19.6372 2.26332 19.1591 1.72866 18.6278 1.25638C17.3497 0.119011 15.4002 0.177338 14.1985 1.35845C12.9429 2.59383 12.8165 4.52833 13.9627 5.86336C14.601 6.60702 15.3238 7.27777 16.0144 7.97526C17.0462 9.01785 18.0829 10.0548 19.1164 11.0957C19.1703 11.15 19.2114 11.2156 19.3128 11.346C19.1011 11.346 18.9603 11.346 18.8202 11.346C13.9241 11.3468 9.02793 11.342 4.13099 11.3493C2.2057 11.3525 0.760921 12.8374 0.795531 14.75C0.827726 16.5355 2.27733 17.9475 4.11892 17.9612C5.83574 17.9742 7.55338 17.9645 9.2702 17.9645C12.4495 17.9645 15.6288 17.9645 18.8081 17.9645C18.9506 17.9637 19.0923 17.9637 19.3555 17.9637Z" fill="#A9A9A9"/>
</svg>
