<svg xmlns="http://www.w3.org/2000/svg" width="60" height="60" viewBox="0 0 60 60">
    <g fill="none" fill-rule="evenodd">
        <g>
            <g>
                <g>
                    <g transform="translate(-610 -170) translate(360 112) translate(232 40) translate(18 18)">
                        <circle cx="30" cy="30" r="30" fill="#BF734D"/>
                        <path fill="#FFF" fill-rule="nonzero" d="M11.19 38.919v-5.362h2.31V31.56h-2.31v-1.006h2.64v-1.947h-1.518c.198-.43.413-.924.66-1.469l-1.254-.231h1.848v-1.93h-2.211c-.181-.561-.446-1.238-.66-1.782l-2.409.577c.132.363.264.792.38 1.205H6.058v1.93h2.045l-1.286.314c.131.412.296.973.379 1.386H5.795v1.947h3.069v1.006H5.91v1.997h2.954v5.362h2.326zm3.696.116c1.37-2.08 1.584-5.577 1.584-8.036h1.122v7.986h2.327v-7.986h1.386v-2.211H16.47v-2.294c1.551-.296 3.184-.726 4.538-1.27l-1.816-1.765c-1.22.593-3.151 1.154-4.95 1.501v6.023c0 1.336-.033 2.92-.346 4.372-.297-.544-.693-1.188-1.056-1.716l-1.534.874c.445.727.99 1.733 1.254 2.36l1.121-.71c-.164.529-.362 1.024-.643 1.469.495.248 1.469.99 1.848 1.403zm-4.702-10.428H8.006l1.188-.33c-.067-.364-.248-.908-.413-1.37h1.98c-.132.528-.38 1.188-.577 1.7zm-3.135 9.256c.544-.874 1.237-2.277 1.666-3.432L6.9 33.887c-.33.99-.875 2.145-1.403 2.904.446.247 1.205.775 1.551 1.072zm28.33-6.782l2.03-1.485c-.892-1.402-2.888-3.448-4.34-4.884l-1.865 1.255c.529.544 1.09 1.155 1.65 1.798l-5.857.148c1.172-1.154 2.326-2.508 3.267-3.877l-2.425-1.04c-1.04 1.948-2.772 3.911-3.333 4.423-.545.511-.908.808-1.403.924.28.643.676 1.831.792 2.293.99-.33 2.294-.363 10.708-.726.314.413.578.825.776 1.171zm-8.679 7.97v-.809h6.468v.809h2.59v-7.475H24.241v7.475H26.7zm6.468-3.119H26.7V33.87h6.468v2.063zm20.014-3.696c.264-.494.825-1.253 1.255-1.633-.957-.28-1.799-.726-2.508-1.27.593-.743 1.072-1.634 1.418-2.657h.76v-1.765h-3.812c.148-.347.28-.727.38-1.09l-1.964-.412c-.313 1.155-.907 2.211-1.7 3.003v-.511h-.775c.314-.43.693-.99 1.139-1.568l-1.931-.643c-.165.56-.495 1.352-.776 1.897l.76.314h-1.155v-2.492H42.21v2.492h-1.172l.99-.446c-.148-.478-.56-1.204-.94-1.749l-1.633.693c.28.445.56 1.04.742 1.502h-.677v6.121h1.667v-1.683c.248.132.528.28.677.38.28-.694.528-1.766.66-2.74v3.895h1.435v-3.746c.247.858.429 1.898.478 2.59l.892-.28v1.188h1.682v-1.204c.363.445.809 1.204.974 1.616.974-.362 1.831-.808 2.557-1.369.76.66 1.634 1.188 2.64 1.567zm-2.672-4.339c-.281-.38-.529-.792-.743-1.221h1.402c-.164.446-.395.858-.66 1.221zm-5.181 1.766c-.116-.677-.297-1.453-.512-2.096l-.858.264v-.578h1.37v2.41zm-4.142-.446v-1.963h1.337v.593l-1.09-.23c-.066.527-.131 1.088-.247 1.6zm5.825 1.007v-2.822c.33.346.676.742.858.973.181-.148.379-.313.544-.494.247.445.495.89.792 1.287-.627.445-1.353.791-2.195 1.056zm.61 8.844v-4.34h2.788v1.452c0 .198-.098.248-.346.264h-.383c-.412-.003-1.036-.01-1.498-.033.297.528.644 1.37.776 1.963 1.171 0 2.095 0 2.837-.313.743-.297.974-.842.974-1.848v-3.465h-5.148v-.808h-2.376v.808h-4.769v5.594h2.327v-3.614h2.442v4.34h2.376z"/>
                    </g>
                </g>
            </g>
        </g>
    </g>
</svg>
