<svg width="20" height="27" viewBox="0 0 20 27" fill="none" xmlns="http://www.w3.org/2000/svg">
<g clip-path="url(#clip0_39_1225)">
<path d="M9.91967 4.04451C10.9195 4.04451 11.73 3.23386 11.73 2.23386C11.73 1.23387 10.9195 0.423218 9.91967 0.423218C8.91987 0.423218 8.10938 1.23387 8.10938 2.23386C8.10938 3.23386 8.91987 4.04451 9.91967 4.04451Z" fill="white"/>
<path d="M9.91967 26.8536C10.9195 26.8536 11.73 26.0429 11.73 25.0429C11.73 24.043 10.9195 23.2323 9.91967 23.2323C8.91987 23.2323 8.10938 24.043 8.10938 25.0429C8.10938 26.0429 8.91987 26.8536 9.91967 26.8536Z" fill="white"/>
<path d="M9.91967 20.5698C10.9195 20.5698 11.73 19.7591 11.73 18.7591C11.73 17.7591 10.9195 16.9485 9.91967 16.9485C8.91987 16.9485 8.10938 17.7591 8.10938 18.7591C8.10938 19.7591 8.91987 20.5698 9.91967 20.5698Z" fill="white"/>
<path d="M17.5027 16.9486C18.5025 16.9486 19.313 16.1379 19.313 15.1379C19.313 14.1379 18.5025 13.3273 17.5027 13.3273C16.5029 13.3273 15.6924 14.1379 15.6924 15.1379C15.6924 16.1379 16.5029 16.9486 17.5027 16.9486Z" fill="white"/>
<path d="M2.13793 16.9486C3.13773 16.9486 3.94823 16.1379 3.94823 15.1379C3.94823 14.1379 3.13773 13.3273 2.13793 13.3273C1.13813 13.3273 0.327637 14.1379 0.327637 15.1379C0.327637 16.1379 1.13813 16.9486 2.13793 16.9486Z" fill="white"/>
<path d="M10.2102 2.23376H9.61865V25.4202H10.2102V2.23376Z" fill="white"/>
<path d="M2.37241 14.9523L1.90723 15.3177L9.68437 25.2208L10.1496 24.8554L2.37241 14.9523Z" fill="white"/>
<path d="M17.4581 15.1084L9.67969 25.0103L10.1448 25.3758L17.9232 15.474L17.4581 15.1084Z" fill="white"/>
<path d="M10.1697 2.08233L9.66162 2.38525L17.4395 15.437L17.9476 15.1341L10.1697 2.08233Z" fill="white"/>
<path d="M17.3714 14.8708L9.78857 18.4935L10.0435 19.0274L17.6263 15.4046L17.3714 14.8708Z" fill="white"/>
<path d="M2.46106 14.8701L2.20605 15.4039L9.78885 19.0275L10.0439 18.4937L2.46106 14.8701Z" fill="white"/>
<path d="M9.46626 2.08479L1.69141 15.1381L2.19959 15.4409L9.97445 2.38759L9.46626 2.08479Z" fill="white"/>
</g>
<defs>
<clipPath id="clip0_39_1225">
<rect width="18.9852" height="26.4303" fill="white" transform="translate(0.327637 0.423218)"/>
</clipPath>
</defs>
</svg>
