<svg width="66" height="66" viewBox="0 0 66 66" fill="none" xmlns="http://www.w3.org/2000/svg">
<g filter="url(#filter0_d_41_4320)">
<circle cx="33.038" cy="32.7171" r="26.9726" fill="url(#paint0_radial_41_4320)"/>
<g clip-path="url(#clip0_41_4320)">
<path d="M27.1331 50.4009C27.1331 48.6218 27.1331 46.8428 27.1331 45.033C24.9397 45.033 22.7557 45.033 20.5176 45.033C20.7519 43.6637 20.9788 42.3327 21.2113 40.9699C21.8967 40.9699 22.5699 40.9718 23.2422 40.969C23.4159 40.968 23.5933 40.9699 23.7642 40.9419C24.4505 40.829 24.7745 40.465 24.824 39.7696C24.8305 39.6772 24.8277 39.5838 24.8277 39.4905C24.8277 34.8562 24.8305 30.2229 24.8221 25.5886C24.8212 25.2797 24.7931 24.9548 24.6951 24.6646C24.4374 23.8973 23.7866 23.6845 23.0667 23.6434C22.3701 23.6042 21.6707 23.607 20.9732 23.5921C20.835 23.5893 20.6959 23.5921 20.5307 23.5921C20.5307 22.4207 20.5307 21.2764 20.5307 20.0882C22.7305 20.0882 24.9229 20.0882 27.1546 20.0882C27.1546 18.2699 27.1546 16.4955 27.1546 14.6997C28.2956 14.6997 29.3974 14.6997 30.5347 14.6997C30.5347 16.4787 30.5347 18.254 30.5347 20.0564C31.3974 20.0564 32.2266 20.0564 33.095 20.0564C33.095 18.2708 33.095 16.4965 33.095 14.6997C34.236 14.6997 35.3378 14.6997 36.4844 14.6997C36.4844 16.5058 36.4844 18.3129 36.4844 20.0648C37.5853 20.2627 38.6423 20.412 39.6787 20.6501C40.7292 20.8918 41.6891 21.3697 42.5518 22.0231C43.7526 22.9322 44.2905 24.1969 44.4595 25.6493C44.5631 26.5388 44.452 27.4041 44.212 28.2684C43.8684 29.5051 43.0505 30.334 42.0065 30.9911C41.902 31.0573 41.802 31.1311 41.761 31.16C42.5276 31.5082 43.3399 31.8003 44.0738 32.2278C45.339 32.9642 46.0216 34.159 46.2466 35.5684C46.5249 37.3045 46.3801 39.0257 45.7069 40.6712C45.1794 41.9584 44.2045 42.8302 43.0038 43.4789C41.5051 44.2881 39.887 44.6615 38.2053 44.8117C37.6497 44.8612 37.0951 44.9097 36.4984 44.9629C36.4984 46.7784 36.4984 48.5901 36.4984 50.4027C35.3565 50.4027 34.2155 50.4027 33.0735 50.4027C33.0754 48.634 33.0772 46.8661 33.0772 45.0974C33.0772 45.0796 33.052 45.0619 33.039 45.0442C32.2182 45.0442 31.3974 45.0442 30.558 45.0442C30.558 46.8447 30.558 48.6237 30.558 50.4027C29.417 50.4009 28.275 50.4009 27.1331 50.4009ZM30.5636 40.9848C30.6337 41.0007 30.6673 41.0166 30.7 41.0147C32.2668 40.9531 33.8401 40.9522 35.3994 40.8066C36.504 40.703 37.5909 40.4099 38.5405 39.763C40.2324 38.6103 40.2408 36.0323 38.5218 34.9188C38.0718 34.6275 37.547 34.4297 37.0325 34.2654C35.2528 33.6979 33.4106 33.7362 31.573 33.7595C31.2406 33.7642 30.9072 33.7604 30.5636 33.7604C30.5636 36.2012 30.5636 38.5832 30.5636 40.9848ZM30.5655 30.4245C31.3312 30.4245 32.0623 30.4226 32.7943 30.4245C33.883 30.4273 34.9494 30.2845 35.9812 29.9317C36.801 29.6517 37.5536 29.2624 37.9681 28.4504C38.7553 26.9103 38.0671 25.1331 36.4462 24.4667C35.4881 24.0728 34.4806 23.8992 33.4573 23.86C32.4983 23.8236 31.5375 23.8684 30.5655 23.8777C30.5655 26.0964 30.5655 28.2348 30.5655 30.4245Z" fill="white"/>
</g>
</g>
<defs>
<filter id="filter0_d_41_4320" x="0.752648" y="0.431725" width="64.5709" height="64.5708" filterUnits="userSpaceOnUse" color-interpolation-filters="sRGB">
<feFlood flood-opacity="0" result="BackgroundImageFix"/>
<feColorMatrix in="SourceAlpha" type="matrix" values="0 0 0 0 0 0 0 0 0 0 0 0 0 0 0 0 0 0 127 0" result="hardAlpha"/>
<feOffset/>
<feGaussianBlur stdDeviation="2.65639"/>
<feComposite in2="hardAlpha" operator="out"/>
<feColorMatrix type="matrix" values="0 0 0 0 1 0 0 0 0 1 0 0 0 0 1 0 0 0 1 0"/>
<feBlend mode="normal" in2="BackgroundImageFix" result="effect1_dropShadow_41_4320"/>
<feBlend mode="normal" in="SourceGraphic" in2="effect1_dropShadow_41_4320" result="shape"/>
</filter>
<radialGradient id="paint0_radial_41_4320" cx="0" cy="0" r="1" gradientUnits="userSpaceOnUse" gradientTransform="translate(43.827 24.0859) rotate(106.858) scale(37.2026)">
<stop stop-color="#F7931A"/>
<stop offset="1" stop-color="#D27300"/>
</radialGradient>
<clipPath id="clip0_41_4320">
<rect width="26.9726" height="37.5501" fill="white" transform="translate(19.5527 14.3267)"/>
</clipPath>
</defs>
</svg>
