<svg width="66" height="66" viewBox="0 0 66 66" fill="none" xmlns="http://www.w3.org/2000/svg">
<g filter="url(#filter0_d_41_4331)">
<circle cx="33.037" cy="33.1304" r="26.9726" fill="url(#paint0_radial_41_4331)"/>
<path d="M46.5238 43.264C46.5117 43.685 46.3255 43.9459 45.9888 44.1301C43.9611 45.2417 41.9375 46.3599 39.9119 47.4762C37.8283 48.6247 35.7406 49.7672 33.6637 50.9285C33.2238 51.1746 32.8425 51.1726 32.4013 50.9285C28.3365 48.6765 24.2644 46.4373 20.195 44.194C19.5641 43.8463 19.448 43.5707 19.6268 42.874C21.0384 37.354 22.4473 31.8339 23.8656 26.3159C23.9223 26.0954 24.0289 25.8708 24.1679 25.6906C26.8386 22.212 29.518 18.7396 32.1955 15.2664C32.7366 14.5644 33.3351 14.5644 33.8682 15.2651C36.5172 18.7456 39.1677 22.2255 41.8114 25.7101C41.9362 25.8748 42.0367 26.0745 42.0887 26.2742C43.5522 31.8501 45.0083 37.4279 46.4651 43.0051C46.4915 43.102 46.5103 43.2008 46.5238 43.264ZM33.0443 25.1378C32.989 25.2077 32.9593 25.2387 32.937 25.2743C31.3311 27.8 29.7232 30.3243 28.128 32.856C28.0599 32.9643 28.0585 33.158 28.1024 33.2864C29.1172 36.2518 30.1456 39.2133 31.1617 42.178C31.2333 42.3872 31.3358 42.447 31.5477 42.445C32.5261 42.4349 33.5045 42.4356 34.4822 42.445C34.6907 42.447 34.7966 42.3952 34.8688 42.1821C35.8864 39.1817 36.9174 36.1859 37.9329 33.1855C37.9747 33.0618 37.943 32.8776 37.8769 32.7606C37.6502 32.3618 37.3924 31.9799 37.1461 31.5919C35.7872 29.4542 34.4289 27.3172 33.0443 25.1378ZM32.1536 18.3361C32.1293 18.3301 32.105 18.324 32.0807 18.318C32.0315 18.3778 31.9802 18.4356 31.933 18.4968C30.0443 20.9472 28.1726 23.4103 26.2536 25.8371C25.8595 26.3354 25.7725 26.7342 26.0093 27.3266C26.4688 28.4765 26.8379 29.662 27.2623 30.8845C27.3521 30.7553 27.4169 30.6679 27.4749 30.5772C28.983 28.2041 30.4931 25.8318 31.9924 23.4534C32.0868 23.3034 32.1455 23.103 32.1469 22.9262C32.159 21.4925 32.1536 20.0596 32.1536 18.6259C32.1536 18.5291 32.1536 18.4329 32.1536 18.3361ZM33.9836 18.3334C33.9599 18.3435 33.9363 18.3543 33.912 18.3644C33.912 19.9318 33.9087 21.4999 33.9181 23.0674C33.9188 23.1898 33.9869 23.3242 34.0557 23.4332C35.5544 25.8002 37.0571 28.1644 38.5604 30.5287C38.6103 30.6074 38.6704 30.6807 38.7466 30.7856C38.7986 30.6498 38.837 30.5577 38.8694 30.4635C39.2864 29.2457 39.696 28.0259 40.1245 26.8122C40.2014 26.5936 40.1724 26.4464 40.0341 26.2655C38.5199 24.2899 37.0145 22.3075 35.5065 20.3272C34.9997 19.6628 34.4916 18.9985 33.9836 18.3334ZM36.6508 42.4167C39.1171 42.4167 41.5428 42.4167 44.0198 42.4167C42.42 39.8985 40.8465 37.4212 39.2291 34.8754C38.3539 37.434 37.5064 39.9126 36.6508 42.4167ZM26.7947 34.9399C25.1895 37.4683 23.6268 39.9287 22.0411 42.4255C24.5161 42.4255 26.9277 42.4255 29.3844 42.4255C28.5234 39.9368 27.6726 37.477 26.7947 34.9399ZM42.1643 44.2323C42.0448 44.2034 42.0145 44.1906 41.9848 44.19C40.0853 44.1886 38.1859 44.1933 36.2865 44.1826C36.0584 44.1812 36.0024 44.2982 35.9451 44.4663C35.5321 45.6848 35.1158 46.9026 34.7028 48.121C34.6812 48.1856 34.6765 48.2555 34.6556 48.3685C37.1657 46.986 39.6292 45.629 42.1643 44.2323ZM23.9918 44.1886C23.9851 44.2162 23.9783 44.2438 23.9716 44.2713C26.4371 45.629 28.9027 46.9873 31.4472 48.3887C30.9768 47.0256 30.5335 45.7601 30.1064 44.4892C30.0295 44.2606 29.9242 44.1819 29.6786 44.1832C27.8575 44.194 26.0363 44.1886 24.2145 44.1886C24.1409 44.1886 24.066 44.1886 23.9918 44.1886ZM24.9284 29.551C24.9034 29.5544 24.8778 29.5584 24.8528 29.5618C24.1382 32.3605 23.4237 35.1598 22.7091 37.9585C23.8413 36.2989 24.9101 34.6192 25.9742 32.9354C26.0161 32.8695 26.0343 32.7579 26.01 32.6859C25.6544 31.6389 25.29 30.5953 24.9284 29.551ZM41.1123 29.4871C41.0536 29.5846 41.0246 29.6189 41.0111 29.6586C40.6818 30.6215 40.3465 31.5824 40.0354 32.5514C39.997 32.6718 40.0496 32.856 40.1218 32.9717C41.1096 34.5465 42.1083 36.114 43.1055 37.6828C43.1487 37.7514 43.2027 37.8132 43.252 37.8778C43.2682 37.8704 43.2843 37.8623 43.2999 37.8549C42.5759 35.0892 41.8532 32.3228 41.1123 29.4871ZM34.1678 44.2148C33.3756 44.2148 32.6428 44.2148 31.8729 44.2148C32.2542 45.3156 32.6232 46.3821 32.9923 47.4479C33.0166 47.4459 33.0409 47.4432 33.0652 47.4412C33.4289 46.3774 33.7926 45.3143 34.1678 44.2148Z" fill="white"/>
</g>
<defs>
<filter id="filter0_d_41_4331" x="0.751671" y="0.844994" width="64.5709" height="64.5708" filterUnits="userSpaceOnUse" color-interpolation-filters="sRGB">
<feFlood flood-opacity="0" result="BackgroundImageFix"/>
<feColorMatrix in="SourceAlpha" type="matrix" values="0 0 0 0 0 0 0 0 0 0 0 0 0 0 0 0 0 0 127 0" result="hardAlpha"/>
<feOffset/>
<feGaussianBlur stdDeviation="2.65639"/>
<feComposite in2="hardAlpha" operator="out"/>
<feColorMatrix type="matrix" values="0 0 0 0 1 0 0 0 0 1 0 0 0 0 1 0 0 0 1 0"/>
<feBlend mode="normal" in2="BackgroundImageFix" result="effect1_dropShadow_41_4331"/>
<feBlend mode="normal" in="SourceGraphic" in2="effect1_dropShadow_41_4331" result="shape"/>
</filter>
<radialGradient id="paint0_radial_41_4331" cx="0" cy="0" r="1" gradientUnits="userSpaceOnUse" gradientTransform="translate(43.8261 24.4991) rotate(106.858) scale(37.2026)">
<stop stop-color="#868686"/>
<stop offset="1"/>
</radialGradient>
</defs>
</svg>
