<svg width="66" height="66" viewBox="0 0 66 66" fill="none" xmlns="http://www.w3.org/2000/svg">
<g filter="url(#filter0_d_41_4296)">
<circle cx="33.037" cy="32.8908" r="26.9726" fill="url(#paint0_radial_41_4296)"/>
<path d="M22.8574 32.3012C23.1536 31.6672 23.5345 31.081 23.8829 30.4768C26.9118 25.2252 29.9445 19.9753 32.9784 14.7259C33.0239 14.648 33.0458 14.5509 33.1333 14.501C33.1361 14.5571 33.1417 14.6126 33.1417 14.6687C33.1423 18.7282 33.1417 22.7876 33.1411 26.847C33.1411 26.9306 33.1322 27.0142 33.1271 27.0984C32.9498 27.1348 32.7989 27.2308 32.6418 27.3121C31.374 27.9685 30.1106 28.6322 28.8411 29.2852C26.9572 30.2535 25.0706 31.2156 23.1828 32.176C23.0807 32.2271 22.9994 32.3477 22.8574 32.3012Z" fill="#BEBEDF"/>
<path d="M33.1279 27.0978C33.133 27.0142 33.142 26.9306 33.142 26.8464C33.1425 22.787 33.1431 18.7275 33.1425 14.6681C33.1425 14.612 33.1369 14.5565 33.1341 14.5004C33.2407 14.5295 33.2536 14.6367 33.2968 14.7119C36.6505 20.5149 40.0019 26.3191 43.3516 32.1244C43.3965 32.2024 43.4711 32.2725 43.4548 32.3774C43.3746 32.3303 43.2961 32.2792 43.2136 32.2371C41.139 31.1707 39.0639 30.1053 36.9893 29.0383C35.8359 28.4453 34.6847 27.8484 33.5307 27.256C33.4079 27.1931 33.2923 27.1039 33.1414 27.1146L33.1279 27.0978Z" fill="#9293C7"/>
<path d="M22.8578 32.3011C22.9997 32.3477 23.081 32.2271 23.1831 32.1754C25.0709 31.215 26.9575 30.2529 28.8414 29.2846C30.1109 28.6321 31.3749 27.9685 32.6422 27.3115C32.7987 27.2302 32.9502 27.1337 33.1274 27.0978L33.1415 27.1146C33.1415 29.3435 33.1426 31.5724 33.142 33.8007C33.1415 35.4792 33.1381 37.1577 33.1358 38.8363C32.4458 38.4643 31.7979 38.0228 31.1336 37.6088C28.4162 35.9162 25.7015 34.2186 22.9862 32.5216C22.9256 32.484 22.8449 32.466 22.8213 32.3825C22.8348 32.3572 22.8482 32.3314 22.8617 32.3056L22.8578 32.3011Z" fill="#9293C7"/>
<path d="M33.1357 38.8369C33.138 37.1583 33.1414 35.4798 33.1419 33.8013C33.143 31.5724 33.1419 29.3435 33.1414 27.1152C33.2917 27.1045 33.4078 27.1937 33.5307 27.2566C34.6841 27.849 35.8358 28.4459 36.9893 29.0389C39.0638 30.1059 41.139 31.1707 43.2136 32.2377C43.296 32.2804 43.3746 32.3314 43.4548 32.378C43.3409 32.562 43.135 32.6232 42.9662 32.7286C39.7572 34.737 36.5455 36.7404 33.3338 38.7443C33.2721 38.7824 33.2193 38.8436 33.1357 38.8369Z" fill="#676AB0"/>
<path d="M33.0995 50.8283C31.1882 47.8286 29.2768 44.8289 27.3661 41.8287C25.8867 39.5055 24.409 37.1819 22.9308 34.8582C22.8966 34.8043 22.8635 34.7488 22.8545 34.6613C26.2822 36.7863 29.7099 38.912 33.1376 41.0371C33.1388 44.2298 33.1404 47.4225 33.1416 50.6152C33.1416 50.6881 33.1584 50.7661 33.0995 50.8283Z" fill="#BEBEDF"/>
<path d="M33.0986 50.8283C33.157 50.7661 33.1407 50.6881 33.1407 50.6152C33.1401 47.4225 33.1385 44.2298 33.1368 41.0371C35.6355 39.4882 38.1342 37.9387 40.6323 36.3897C41.5602 35.8147 42.4875 35.2391 43.4289 34.6551C43.4553 34.76 43.379 34.8144 43.3403 34.875C39.9844 40.1507 36.6262 45.4253 33.2664 50.6993C33.2293 50.7577 33.2187 50.8429 33.134 50.8637C33.1272 50.8654 33.116 50.8592 33.1104 50.8536C33.1042 50.8469 33.1026 50.8368 33.0986 50.8283Z" fill="#9293C7"/>
</g>
<defs>
<filter id="filter0_d_41_4296" x="0.751671" y="0.605431" width="64.5709" height="64.5708" filterUnits="userSpaceOnUse" color-interpolation-filters="sRGB">
<feFlood flood-opacity="0" result="BackgroundImageFix"/>
<feColorMatrix in="SourceAlpha" type="matrix" values="0 0 0 0 0 0 0 0 0 0 0 0 0 0 0 0 0 0 127 0" result="hardAlpha"/>
<feOffset/>
<feGaussianBlur stdDeviation="2.65639"/>
<feComposite in2="hardAlpha" operator="out"/>
<feColorMatrix type="matrix" values="0 0 0 0 1 0 0 0 0 1 0 0 0 0 1 0 0 0 1 0"/>
<feBlend mode="normal" in2="BackgroundImageFix" result="effect1_dropShadow_41_4296"/>
<feBlend mode="normal" in="SourceGraphic" in2="effect1_dropShadow_41_4296" result="shape"/>
</filter>
<radialGradient id="paint0_radial_41_4296" cx="0" cy="0" r="1" gradientUnits="userSpaceOnUse" gradientTransform="translate(43.8261 24.2596) rotate(106.858) scale(37.2026)">
<stop stop-color="#4159B0"/>
<stop offset="1" stop-color="#1F2C5D"/>
</radialGradient>
</defs>
</svg>
