<svg width="99" height="99" viewBox="0 0 99 99" fill="none" xmlns="http://www.w3.org/2000/svg">
<circle cx="49.5443" cy="49.2521" r="49.1469" fill="url(#paint0_radial_253_479)"/>
<path fill-rule="evenodd" clip-rule="evenodd" d="M26.9668 47.7837L26.9722 47.7818L26.9715 47.7837L33.9673 45.3718L26.3203 68.8818L26.3341 68.8537L26.325 68.8818L37.75 52.8304L49.2072 36.7338C49.3553 36.5264 49.5029 36.319 49.6504 36.1115C49.798 35.9041 49.9456 35.6967 50.0937 35.4893C48.6347 35.9763 47.1762 36.4634 45.7177 36.9504C44.2605 37.4371 42.8033 37.9237 41.3456 38.4103C42.0958 36.3931 42.8466 34.3754 43.5975 32.3577L43.61 32.3241C44.3566 30.3176 45.1032 28.3111 45.8494 26.3051C48.9283 25.6517 52.2234 26.0665 55.0429 27.4593C56.3705 28.1148 57.6159 29.0068 58.4418 30.2298C60.2364 32.8864 59.6505 36.5941 57.884 39.27C56.6043 41.2083 53.8866 43.7036 52.4131 45.0565L52.4131 45.0565L52.4131 45.0565L52.3398 45.1239C52.0133 45.2921 51.6855 45.4468 51.3583 45.5871C51.6333 45.4692 51.9119 45.3605 52.1931 45.2586C51.6416 45.7658 51.3258 46.0634 51.4342 46.0319C51.7753 45.9339 52.1213 45.8497 52.4672 45.7655C53.0466 45.6245 53.6259 45.4834 54.1824 45.2775L54.486 45.1654C58.1568 43.8105 61.8406 42.4509 64.9694 40.0266C68.5737 37.2346 71.4948 32.5382 70.124 27.8655C68.5565 22.5222 62.4181 19.7237 57.2851 18.922C35.6418 15.5453 18.1563 35.3904 17.9639 36.1986C18.0205 35.9633 19.6502 35.2093 20.5552 34.7906L20.5553 34.7906L20.5554 34.7905C20.8242 34.6661 21.0291 34.5714 21.1098 34.5285C22.5196 33.7827 23.9531 33.0777 25.4039 32.4136C28.2907 31.0911 31.2525 29.9348 34.2701 28.9489L26.9668 47.7837ZM60.7228 45.572C66.779 43.7515 73.7585 45.4366 77.246 50.1738C80.1088 54.0599 80.0093 59.487 77.579 63.5515C75.7758 66.5692 73.0428 68.5724 70.0612 70.3413C66.7591 72.2995 63.2124 73.8139 59.5272 74.895C58.0514 75.4197 56.4896 75.7417 54.937 76.0306C51.7154 76.6325 48.4224 76.9334 45.1467 76.9699C43.9028 76.9847 42.6379 76.9787 41.4014 76.8129C38.4894 76.613 35.5941 76.1758 32.7611 75.5056C32.0649 75.3425 31.3859 75.1665 30.7267 74.9812C27.5727 74.1004 24.5116 72.9255 21.6087 71.4629C20.4186 70.87 19.646 70.4227 19.3954 70.2741C19.3658 70.2571 19.3361 70.2401 19.3064 70.2231C19.3049 70.2222 19.3052 70.2216 19.3074 70.2213C19.3069 70.221 19.3067 70.2209 19.3067 70.2209C19.3067 70.2209 19.3073 70.221 19.3085 70.2212C19.349 70.2181 19.7988 70.2797 20.5054 70.3766C21.7163 70.5425 23.6815 70.8119 25.6338 71.0356C27.927 71.2508 30.6801 71.4284 33.6104 71.444C33.8976 71.4398 34.1863 71.4341 34.4762 71.4267L37.453 63.7828L32.297 65.4175L32.2975 65.4169L32.2967 65.4171L46.5346 46.0341L46.5309 46.0451L46.537 46.0367L41.8421 59.7588L45.9681 58.4059L45.9666 58.4097L45.9706 58.4084L45.9632 58.4181L40.8676 70.9517C48.0827 70.0426 55.3152 67.7298 60.1065 62.7541C60.1427 62.7165 60.1787 62.6788 60.2144 62.6411C60.6756 62.1464 61.1076 61.6283 61.507 61.0861C61.5763 60.9887 61.644 60.8905 61.71 60.7913C62.4188 59.6806 63.8973 56.5913 62.6364 54.2092C62.4775 53.9253 62.2888 53.6562 62.0736 53.4041C62.0582 53.3869 62.0426 53.3698 62.0268 53.3527C60.9135 52.1468 58.9251 51.1765 55.0941 51.1873C53.2501 51.2781 51.2869 51.5388 50.1165 51.6942C49.4268 51.7858 49.0125 51.8409 49.06 51.803C52.5606 49.011 56.3963 46.8724 60.7228 45.572Z" fill="white"/>
<defs>
<radialGradient id="paint0_radial_253_479" cx="0" cy="0" r="1" gradientUnits="userSpaceOnUse" gradientTransform="translate(69.2031 33.5251) rotate(106.858) scale(67.7871)">
<stop stop-color="#27ABC8"/>
<stop offset="1" stop-color="#020C4F"/>
</radialGradient>
</defs>
</svg>
