<svg width="78" height="78" viewBox="0 0 78 78" fill="none" xmlns="http://www.w3.org/2000/svg">
<circle cx="39" cy="39" r="39" fill="url(#paint0_radial_41_4118)"/>
<g clip-path="url(#clip0_41_4118)">
<path d="M38.7955 17.6818C44.78 17.6818 50.7646 17.6798 56.7492 17.6818C58.1291 17.6818 58.1858 17.7486 58.1839 19.1369C58.1839 21.4914 58.1839 23.8459 58.182 26.2004C58.1801 27.4359 58.0799 27.5657 56.8324 27.5696C53.0518 27.5848 49.2732 27.6001 45.4927 27.5524C44.7479 27.5428 44.47 27.7071 44.5116 28.4804C44.5645 29.4639 44.5532 30.453 44.5097 31.4384C44.4795 32.1335 44.7611 32.3626 45.4265 32.4409C48.1447 32.7636 50.8705 33.0539 53.5641 33.5275C56.322 34.0125 59.0534 34.677 61.4824 36.2009C61.7225 36.3517 61.9625 36.5102 62.1799 36.6897C63.8282 38.0455 63.866 39.4357 62.2328 40.803C60.4636 42.2848 58.3124 43.0181 56.1273 43.442C52.7059 44.1065 49.2411 44.5515 45.7857 45.0327C44.3831 45.2275 44.3755 45.1587 44.3736 46.6348C44.3736 52.1077 44.3736 57.5806 44.3698 63.0534C44.3698 64.3825 44.2867 64.4703 42.9843 64.4722C40.181 64.478 37.3778 64.478 34.5745 64.4722C33.1568 64.4684 33.1266 64.4359 33.1247 63.0439C33.1209 57.4431 33.1095 51.8442 33.1379 46.2434C33.1417 45.4757 32.9319 45.1912 32.1531 45.1415C28.0625 44.878 23.9985 44.3834 20.0478 43.2472C18.6055 42.8329 17.2332 42.1645 15.842 41.5802C15.4998 41.4369 15.1917 41.1925 14.8931 40.9596C13.0368 39.5102 13.0576 37.9615 14.9498 36.5484C16.8967 35.0933 19.1688 34.3562 21.4806 33.9323C25.0967 33.2716 28.76 32.8667 32.4064 32.3836C32.9186 32.3149 33.1303 32.1335 33.1228 31.616C33.1058 30.5351 33.0717 29.4486 33.136 28.3716C33.1833 27.5791 32.8562 27.4053 32.1474 27.4092C28.399 27.4321 24.6506 27.4206 20.9022 27.4168C19.3938 27.4149 19.3541 27.3729 19.3541 25.8739C19.3541 23.6148 19.3503 21.3558 19.3541 19.0968C19.356 17.7753 19.4505 17.6779 20.7415 17.676C26.7639 17.6798 32.7806 17.6818 38.7955 17.6818ZM16.203 38.4866C16.2295 38.6184 16.2559 38.7502 16.2824 38.88C16.5792 39.0404 16.8608 39.26 17.1765 39.3498C18.6263 39.7642 20.0667 40.3065 21.5487 40.4993C25.0079 40.9519 28.4822 41.3873 31.9622 41.5458C40.3682 41.9315 48.7685 41.9105 57.063 40.1671C58.3257 39.9016 59.6262 39.661 60.8832 38.6566C55.7681 35.4848 50.2618 34.5739 44.523 34.0068C44.523 36.0577 44.5267 37.8985 44.5211 39.7412C44.5173 40.9901 44.3963 41.1562 43.1884 41.1467C40.198 41.1238 37.2076 41.0455 34.2172 41.0111C33.4403 41.0035 33.1719 40.6368 33.1738 39.8883C33.1795 38.1716 33.1266 36.4529 33.1303 34.7362C33.1322 34.1729 32.981 33.9323 32.3705 33.9858C28.0285 34.3715 23.7527 35.0971 19.6735 36.6993C18.4732 37.1767 17.3599 37.8851 16.203 38.4866Z" fill="white"/>
</g>
<defs>
<radialGradient id="paint0_radial_41_4118" cx="0" cy="0" r="1" gradientUnits="userSpaceOnUse" gradientTransform="translate(54.6 26.52) rotate(106.858) scale(53.7917)">
<stop stop-color="#00A77B"/>
<stop offset="1" stop-color="#007959"/>
</radialGradient>
<clipPath id="clip0_41_4118">
<rect width="49.92" height="46.8" fill="white" transform="translate(13.5205 17.6802)"/>
</clipPath>
</defs>
</svg>
