<svg width="31" height="32" viewBox="0 0 31 32" fill="none" xmlns="http://www.w3.org/2000/svg">
<path d="M16.2724 31.1545C15.6833 31.1545 15.0942 31.1545 14.5051 31.1545C14.1093 31.0949 13.7122 31.0327 13.3164 30.9758C6.89471 30.0438 1.93185 25.4384 0.492903 19.0578C0.330077 18.3376 0.224175 17.6042 0.0917969 16.8775C0.0917969 16.1971 0.0917969 15.518 0.0917969 14.8375C0.150043 14.4867 0.220204 14.1386 0.265212 13.7865C1.07272 7.53027 5.91776 2.2881 12.121 0.982852C12.91 0.816056 13.7095 0.700887 14.5051 0.56189C15.0942 0.56189 15.6833 0.56189 16.2724 0.56189C16.8231 0.655878 17.3764 0.736629 17.9231 0.845179C24.0086 2.04055 28.0328 5.59755 29.9616 11.4751C30.3442 12.6401 30.4501 13.8963 30.6844 15.1102C30.6844 15.6093 30.6844 16.1071 30.6844 16.6061C30.6248 17.0271 30.5626 17.448 30.507 17.8703C29.6889 24.1702 24.8425 29.4349 18.6525 30.7348C17.8649 30.899 17.0653 31.0155 16.2724 31.1545ZM15.3735 2.6998C7.6347 2.67067 1.46985 9.43122 2.26677 17.2362C2.97632 24.1755 9.2378 29.7354 16.7198 28.9835C23.3758 28.315 29.2017 22.4255 28.479 14.6046C27.8171 7.41378 21.6694 2.62169 15.3735 2.6998Z" fill="#C4C4C4"/>
<path d="M15.6011 27.9952C11.9726 27.9171 8.96501 26.7164 6.5041 24.229C5.72704 23.444 5.64497 22.9833 6.11094 21.9773C7.09848 19.8447 8.63671 18.2416 10.7389 17.1759C11.2975 16.8926 11.8085 16.89 12.3698 17.1693C14.3938 18.1754 16.4325 18.178 18.4578 17.168C19.0152 16.89 19.5354 16.8873 20.0927 17.1719C22.2346 18.2641 23.794 19.9056 24.7762 22.0951C25.1641 22.9608 25.0529 23.5062 24.3765 24.188C21.9182 26.6661 18.9265 27.9025 15.6011 27.9952Z" fill="#C4C4C4"/>
<path d="M20.735 11.6423C20.7284 14.5877 18.3376 16.9599 15.3816 16.9586C12.4614 16.9572 10.0495 14.5347 10.0508 11.6039C10.0521 8.63066 12.4548 6.25977 15.4531 6.273C18.4078 6.28757 20.7416 8.65978 20.735 11.6423Z" fill="#C4C4C4"/>
</svg>
