<svg width="33" height="33" viewBox="0 0 33 33" fill="none" xmlns="http://www.w3.org/2000/svg">
<path d="M32.5692 16.4619C32.6053 25.3146 25.2866 32.6641 16.3202 32.6241C7.436 32.5841 0.178321 25.3463 0.183597 16.4528C0.188873 7.49664 7.42846 0.234752 16.3489 0.238527C25.3529 0.242302 32.5699 7.46116 32.5692 16.4619Z" fill="#1933BE"/>
<path d="M8.42668 17.4849C8.96446 16.572 10.7805 13.4905 11.0443 13.0405C11.3081 12.5903 11.5838 12.1462 11.8268 11.6851C11.955 11.4419 12.1142 11.3678 12.3852 11.3687C15.8322 11.3783 19.2794 11.3711 22.7264 11.3817C23.0111 11.3826 23.1712 11.3057 23.3131 11.0528C23.4617 10.7877 23.6127 10.5241 23.7648 10.2608C24.1529 9.58871 24.5497 8.92056 24.943 8.24719C24.8441 8.14398 24.7272 8.19526 24.627 8.19504C19.9059 8.19178 15.1847 8.19439 10.4637 8.1857C10.2195 8.18527 10.087 8.25675 9.96832 8.46665C9.95593 8.48838 9.94333 8.51011 9.93095 8.53205H9.93116C9.44118 9.39663 8.93556 10.2523 8.43537 11.1112C8.36193 11.2375 6.43048 14.4711 6.53326 14.6434C6.89504 15.2488 7.25225 15.8585 7.61403 16.4775C7.80829 16.81 8.00363 17.1446 8.20222 17.484C8.25242 17.5696 8.37627 17.5705 8.42668 17.4849Z" fill="white"/>
<path d="M24.8768 21.0171C24.8779 21.0151 24.879 21.0132 24.8801 21.011C24.8848 21.0021 24.8892 20.9934 24.8933 20.9847C24.8935 20.9843 24.8938 20.9838 24.894 20.9834C24.9033 20.9638 24.9111 20.9445 24.9174 20.9249C24.9174 20.9245 24.9177 20.9243 24.9177 20.9239C24.9207 20.9145 24.9231 20.9049 24.9253 20.8956C24.9255 20.895 24.9255 20.8945 24.9257 20.8939C24.932 20.8637 24.9337 20.8324 24.9287 20.7996C24.9283 20.7972 24.9281 20.7946 24.9276 20.7922C24.9268 20.7876 24.9259 20.7828 24.9248 20.7781C24.924 20.7744 24.9229 20.7707 24.922 20.767C24.9205 20.7618 24.919 20.7563 24.9172 20.7511C24.9153 20.745 24.9131 20.7389 24.9105 20.7326C24.9092 20.7294 24.9079 20.7263 24.9064 20.7231C24.904 20.7172 24.9011 20.7116 24.8983 20.7055C24.897 20.7027 24.8955 20.6996 24.894 20.6968C24.8894 20.6879 24.8846 20.679 24.8792 20.6698C24.7182 20.4011 24.5585 20.1314 24.3992 19.8611C24.3986 19.8602 24.3981 19.8592 24.3975 19.8583C24.4051 19.8442 24.4168 19.822 24.3992 19.8537C24.3983 19.8555 24.3979 19.8563 24.3973 19.8576C24.3625 19.7985 24.3277 19.7392 24.2927 19.6799C24.3288 19.7368 24.3644 19.7944 24.3992 19.8535C23.9775 19.1384 23.5592 18.4183 23.134 17.6924C22.9643 17.7986 22.9199 17.9733 22.8358 18.115C22.3472 18.9379 21.86 19.7616 21.3839 20.5918C21.37 20.6162 21.3557 20.6379 21.3411 20.6585V20.6666C21.2612 20.7794 21.1682 20.8332 21.0074 20.8328C20.3082 20.8311 19.6087 20.83 18.9095 20.8293C18.6874 20.8291 18.4654 20.8289 18.2433 20.8289C17.6949 20.8285 17.1464 20.8282 16.5978 20.828C16.5602 20.828 16.5226 20.828 16.485 20.828C15.6813 20.8278 14.8776 20.8278 14.0736 20.8274C14.0675 20.8274 14.0614 20.8269 14.0553 20.8263C14.0245 20.8232 13.9912 20.8133 13.9428 20.8043C13.9447 20.7967 13.9476 20.7896 13.9495 20.782H13.9489C14.0141 20.544 14.1694 20.36 14.2859 20.1586C14.7081 19.4265 15.1472 18.7038 15.5568 17.9649C15.564 17.9518 15.5711 17.9394 15.5785 17.9277C15.6885 17.7504 15.8151 17.7015 16.0246 17.7039C16.9637 17.7141 17.903 17.7076 18.8424 17.7106C18.9399 17.7109 19.0377 17.7113 19.1353 17.7119C19.1511 17.7119 19.1665 17.7117 19.1815 17.7113C19.2317 17.7098 19.2776 17.7048 19.32 17.6933C19.4047 17.67 19.4744 17.6198 19.5338 17.5162C19.6528 17.3087 19.7728 17.1016 19.8927 16.8947C19.9223 16.8439 19.9516 16.793 19.9811 16.7422C19.9924 16.7226 20.004 16.7033 20.0153 16.6837C20.112 16.5175 20.2089 16.3513 20.306 16.1853C20.5989 15.6838 20.8929 15.183 21.1853 14.6812C21.2062 14.6456 21.2138 14.6026 21.2262 14.5591C21.2279 14.5528 21.2297 14.5467 21.2318 14.5407C21.2316 14.5404 21.2314 14.5404 21.2312 14.5402C21.2314 14.5396 21.2316 14.5387 21.2318 14.5381C21.1239 14.4555 21.0096 14.4957 20.9055 14.4957C18.6568 14.4926 16.4079 14.4955 14.1592 14.49C13.9554 14.4896 13.8246 14.5302 13.7103 14.7271C12.0928 17.5088 10.4669 20.2852 8.84246 23.063H8.84398C8.84354 23.0639 8.84289 23.0648 8.84246 23.0656C8.78357 23.1662 8.72469 23.2668 8.66602 23.3674C8.57389 23.5252 8.48155 23.6827 8.38942 23.8405C8.36877 23.8759 8.35509 23.9154 8.32727 23.9821C8.32336 23.9917 8.31902 24.0017 8.31445 24.0126C8.99521 24.0126 9.67488 24.0126 10.3541 24.0126C13.2336 24.0126 16.771 24.0128 19.778 24.0143C20.1083 24.0145 20.4385 24.0147 20.7688 24.0147C21.4793 24.0152 22.1896 24.0156 22.8999 24.0165C22.9347 24.0165 22.966 24.0141 22.9947 24.0091C23.0599 23.9978 23.1107 23.9728 23.155 23.9315C23.1881 23.9007 23.2174 23.8609 23.2465 23.8107C23.7728 22.8948 24.3095 21.9851 24.8451 21.0746C24.8507 21.0651 24.8562 21.0557 24.8614 21.0466C24.8627 21.0444 24.8638 21.0423 24.8651 21.0401C24.8685 21.0321 24.8727 21.0245 24.8768 21.0171Z" fill="white"/>
</svg>
