<svg width="33" height="34" viewBox="0 0 33 34" fill="none" xmlns="http://www.w3.org/2000/svg">
<path d="M32.4167 16.8992C32.4528 25.7519 25.1341 33.1013 16.1678 33.0613C7.28362 33.0213 0.0259768 25.7836 0.0312529 16.8901C0.036529 7.93398 7.27608 0.67213 16.1964 0.675905C25.2005 0.67968 32.4174 7.89849 32.4167 16.8992Z" fill="#1933BE"/>
<path d="M27.3805 22.9573C27.3906 22.7981 27.3995 22.6389 27.4058 22.4798C27.4109 22.3711 27.4146 22.2625 27.4184 22.1526C27.4184 22.1424 27.4184 22.1323 27.4197 22.121C27.5056 19.3038 27.071 16.4562 25.982 13.8715C25.9631 13.8209 25.9441 13.7704 25.9252 13.7199C25.4742 12.5665 25.0207 11.7958 24.4256 10.9924C24.1136 10.5489 23.7763 10.1245 23.4162 9.72145C23.4036 9.70503 23.391 9.69113 23.3783 9.67471C22.6709 8.81565 22.1807 8.42023 21.621 8.02986C21.5996 8.01344 21.5768 7.99702 21.5554 7.98059C21.5364 7.96543 21.5175 7.94901 21.4972 7.93385C21.0879 7.61044 20.5826 7.13796 20.076 6.90424C20.0823 6.91688 20.0886 6.92825 20.0962 6.94088C20.0381 6.89666 19.9775 6.85876 19.9055 6.83476C19.9231 6.86003 19.9383 6.8815 19.956 6.90551C19.9383 6.8954 19.9219 6.88529 19.9042 6.87519C19.9055 6.87645 19.9067 6.87898 19.908 6.88024C19.9636 6.95857 20.6761 7.97428 21.4935 9.77199C21.5996 10.0562 21.7335 10.4024 21.9066 10.837L20.1215 13.9612L20.1442 14.4905L16.3896 19.9809L12.5997 14.3755L12.6173 13.9599L10.8323 10.8357C11.0066 10.4011 11.1405 10.055 11.2454 9.77072C12.064 7.97301 12.7765 6.95604 12.8321 6.87898C12.8334 6.87771 12.8346 6.87519 12.8359 6.87392C12.8182 6.88403 12.8018 6.89414 12.7841 6.90424C12.8005 6.88024 12.8157 6.85876 12.8334 6.8335C12.7626 6.85876 12.7007 6.8954 12.6426 6.93962C12.6489 6.92698 12.6552 6.91561 12.6628 6.90298C12.1562 7.13669 11.6509 7.61044 11.2416 7.93259C11.2226 7.94775 11.2037 7.96417 11.1835 7.97933C11.162 7.99575 11.1393 8.01218 11.1178 8.0286C10.5581 8.42023 10.068 8.81565 9.3605 9.67345C9.34787 9.68987 9.33523 9.70377 9.3226 9.72019C8.96255 10.1245 8.62525 10.5489 8.31321 10.9911C7.71818 11.7946 7.26465 12.5639 6.81364 13.7186C6.79343 13.7691 6.77574 13.8197 6.75679 13.8702C5.66907 16.4562 5.23322 19.3038 5.31913 22.121C5.31913 22.1311 5.31913 22.1412 5.32039 22.1526C5.32418 22.2612 5.32797 22.3698 5.33303 22.4798C5.34061 22.6389 5.34819 22.7981 5.35829 22.9573C5.35829 22.9573 5.35829 22.9573 5.35829 22.9586C5.35956 22.9826 5.36208 23.0053 5.36461 23.0293C5.37724 23.1935 5.39746 23.3578 5.41767 23.5233C5.42525 23.5864 5.43283 23.6509 5.44041 23.714C6.36643 23.6167 7.26086 23.5233 8.18308 23.4272C8.18687 23.3893 8.1894 23.3552 8.19319 23.3173L8.74653 23.2377C8.61009 20.4572 8.86654 17.9596 9.30618 15.8006C9.32007 15.7488 9.33271 15.697 9.3466 15.6452C9.44009 15.6881 12.3369 18.8704 12.4026 18.8932L12.4455 17.9065L12.443 18.0922L16.3909 23.6938L20.3059 18.1415L20.3388 18.8919C20.4032 18.8692 23.3 15.6881 23.3948 15.6439C23.4087 15.6957 23.4225 15.7475 23.4352 15.7993C23.8748 17.9583 24.13 20.4559 23.9948 23.2365L24.5482 23.3161C24.552 23.3527 24.5545 23.3881 24.5583 23.426C25.4805 23.522 26.3749 23.6167 27.301 23.7128C27.3085 23.6483 27.3148 23.5852 27.3224 23.522C27.3426 23.3565 27.3616 23.1923 27.3755 23.028C27.3767 23.0053 27.3793 22.9813 27.3805 22.9573Z" fill="white"/>
</svg>
