<svg width="33" height="34" viewBox="0 0 33 34" fill="none" xmlns="http://www.w3.org/2000/svg">
<g clip-path="url(#clip0_39_749)">
<path d="M32.4559 17.1056C32.4921 25.9583 25.1733 33.3078 16.2069 33.2678C7.32272 33.2278 0.0650393 25.99 0.0703154 17.0965C0.0755915 8.14032 7.31518 0.878428 16.2356 0.882204C25.2397 0.885979 32.4566 8.10483 32.4559 17.1056Z" fill="#1933BE"/>
<path d="M24.9991 21.6751L24.9991 21.675C24.9628 21.5508 24.8784 21.4474 24.766 21.3877L12.8588 15.0799L12.9617 14.6657H13.7741H23.57C23.9167 14.6657 24.1808 14.3386 24.1033 13.9874C24.1033 13.9874 24.1033 13.9874 24.1033 13.9874L23.7911 12.5744C23.5491 11.4791 22.5904 10.7037 21.487 10.7037H20.3521H20.0721H20.0698H20.0672H19.8848H19.8798L19.85 10.5187L19.8475 10.5028L19.8451 10.4877L19.8498 10.4867C19.7095 9.63978 19.3973 8.66223 18.7296 7.93211L18.7296 7.9321C18.0744 7.2156 17.1904 6.84687 16.0807 6.84687H16.0806H16.0806H16.0806H16.0806H16.0806H16.0806H16.0806H16.0806H16.0806H16.0805H16.0805H16.0805H16.0805H16.0805H16.0805H16.0805H16.0805H16.0805H16.0804H16.0804H16.0804H16.0804H16.0804H16.0804H16.0804H16.0804H16.0804H16.0804H16.0803H16.0803H16.0803H16.0803H16.0803H16.0803H16.0803H16.0803H16.0803H16.0802H16.0802H16.0802H16.0802H16.0802H16.0802H16.0802H16.0802H16.0802H16.0802H16.0801H16.0801H16.0801H16.0801H16.0801H16.0801H16.0801H16.0801H16.0801H16.0801H16.08H16.08H16.08H16.08H16.08H16.08H16.08H16.08H16.08H16.08H16.0799H16.0799H16.0799H16.0799H16.0799H16.0799H16.0799H16.0799H16.0799H16.0799H16.0798H16.0798H16.0798H16.0798H16.0798H16.0798H16.0798H16.0798H16.0798H16.0798H16.0797H16.0797H16.0797H16.0797H16.0797H16.0797H16.0797H16.0797H16.0797H16.0797H16.0796H16.0796H16.0796H16.0796H16.0796H16.0796H16.0796H16.0796H16.0796H16.0796H16.0795H16.0795H16.0795H16.0795H16.0795H16.0795H16.0795H16.0795H16.0795H16.0795H16.0795H16.0794H16.0794H16.0794H16.0794H16.0794H16.0794H16.0794H16.0794H16.0794H16.0794H16.0793H16.0793H16.0793H16.0793H16.0793H16.0793H16.0793H16.0793H16.0793H16.0793H16.0792H16.0792H16.0792H16.0792H16.0792H16.0792H16.0792H16.0792H16.0792H16.0792H16.0792H16.0791H16.0791H16.0791H16.0791H16.0791H16.0791H16.0791H16.0791H16.0791H16.0791H16.079H16.079H16.079H16.079H16.079H16.079H16.079H16.079H16.079H16.079H16.0789H16.0789H16.0789H16.0789H16.0789H16.0789H16.0789H16.0789H16.0789H16.0789H16.0788H16.0788H16.0788H16.0788H16.0788H16.0788H16.0788H16.0788H16.0788H16.0788H16.0787H16.0787H16.0787H16.0787H16.0787H16.0787H16.0787H16.0787H16.0787H16.0787H16.0786H16.0786H16.0786H16.0786H16.0786H16.0786H16.0786H16.0786H16.0786H16.0786H16.0785H16.0785H16.0785H16.0785H16.0785H16.0785H16.0785H16.0785H16.0785H16.0785H16.0784H16.0784H16.0784H16.0784H16.0784H16.0784H16.0784H16.0784H16.0784H16.0783H16.0783H16.0783H16.0783H16.0783H16.0783H16.0783H16.0783H16.0783H16.0783H16.0782H16.0782H16.0782H16.0782H16.0782H16.0782H16.0782H16.0782H16.0782H16.0781H16.0781H16.0781H16.0781H16.0781H16.0781H16.0781H16.0781H16.0781H16.078H16.078H16.078H16.078H16.078H16.078H16.078H16.078H16.078H16.078H16.078H16.078H16.0779H16.0779H16.0779H16.0779H16.0779H16.0779H16.0779H16.0779H16.0779H16.0779H16.0779H16.0779H16.0778H16.0778H16.0778H16.0778H16.0778H16.0778H16.0778H16.0778H16.0778H16.0778H16.0778H16.0778H16.0777H16.0777H16.0777H16.0777H16.0777H16.0777H16.0777H16.0777H16.0777H16.0777H16.0777H16.0777H16.0776H16.0776H16.0776H16.0776H16.0776H16.0776H16.0776H16.0776H16.0776H16.0776H16.0776H16.0776H16.0775H16.0775H16.0775H16.0775H16.0775H16.0775H16.0775H16.0775H16.0775H16.0775H16.0775H16.0775H16.0774H16.0774H16.0774H16.0774H16.0774H16.0774H16.0774H16.0774H16.0774H16.0774H16.0774H16.0774H16.0773H16.0773H16.0773H16.0773H16.0773H16.0773H16.0773H16.0773H16.0773H16.0773H16.0773H16.0773H16.0772H16.0772H16.0772H16.0772H16.0772H16.0772H16.0772H16.0772H16.0772H16.0772H16.0772H16.0772H16.0771H16.0771H16.0771H16.0771H16.0771H16.0771H16.0771H16.0771H16.0771H16.0771H16.0771H16.0771H16.0771H16.077H16.077H16.077H16.077H16.077H16.077H16.077H16.077H16.077H16.077H16.077H16.077H16.0769H16.0769H16.0769H16.0769H16.0769H16.0769H16.0769H16.0769H16.0769H16.0769H16.0769H16.0769H16.0768H16.0768H16.0768H16.0768H16.0768H16.0768H16.0768H16.0768H16.0768H16.0768H16.0768H16.0768H16.0767H16.0767H16.0767H16.0767H16.0767H16.0767H16.0767H16.0767H16.0767H16.0767H16.0767H16.0767H16.0766H16.0766H16.0766H16.0766H16.0766H16.0766H16.0766H16.0766H16.0766H16.0766H16.0766H16.0765H16.0765H16.0765H16.0765H16.0765H16.0765H16.0765H16.0765H16.0765H16.0765H16.0765H16.0765H16.0764H16.0764H16.0764H16.0764H16.0764H16.0764H16.0764H16.0764H16.0764H16.0764H16.0764H16.0764H16.0763H16.0763H16.0763H16.0763H16.0763H16.0763H16.0763H16.0763H16.0763H16.0763H16.0763H16.0763H16.0762H16.0762H16.0762H16.0762H16.0762H16.0762H16.0762H16.0762H16.0762H16.0762H16.0762H16.0762H16.0761H16.0761H16.0761H16.0761H16.0761H16.0761H16.0761H16.0761H16.0761H16.0761H16.0761H16.0761H16.076H16.076H16.076H16.076H16.076H16.076H16.076H16.076H16.076H16.076H16.076H16.076H16.0759H16.0759H16.0759H16.0759H16.0759H16.0759H16.0759H16.0759H16.0759H16.0759H16.0759H16.0759H16.0759H16.0758H16.0758H16.0758H16.0758H16.0758H16.0758H16.0758H16.0758H16.0758H16.0758H16.0758H16.0758H16.0757H16.0757H16.0757H16.0757H16.0757H16.0757H16.0757H16.0757H16.0757H16.0757H16.0757H16.0757H16.0756H16.0756H16.0756H16.0756H16.0756H16.0756H16.0756H16.0756H16.0756H16.0756H16.0756H16.0756H16.0755H16.0755H16.0755H16.0755H16.0755H16.0755H16.0755H16.0755H16.0755H16.0755H16.0755H16.0755H16.0754H16.0754H16.0754H16.0754H16.0754H16.0754H16.0754H16.0754H16.0754H16.0754H16.0754H16.0754H16.0753H16.0753H16.0753H16.0753H16.0753H16.0753H16.0753H16.0753H16.0753H16.0753H16.0753H16.0753H16.0752H16.0752H16.0752H16.0752H16.0752H16.0752H16.0752H16.0752H16.0752H16.0752H16.0751H16.0751H16.0751H16.0751H16.0751H16.0751H16.0751H16.0751H16.0751H16.075H16.075H16.075H16.075H16.075H16.075H16.075H16.075H16.075H16.0749H16.0749H16.0749H16.0749H16.0749H16.0749H16.0749H16.0749H16.0749H16.0748H16.0748H16.0748H16.0748H16.0748H16.0748H16.0748H16.0748H16.0748H16.0747H16.0747H16.0747H16.0747H16.0747H16.0747H16.0747H16.0747H16.0747H16.0746H16.0746H16.0746H16.0746H16.0746H16.0746H16.0746H16.0746H16.0746H16.0745H16.0745H16.0745H16.0745H16.0745H16.0745H16.0745H16.0745H16.0745H16.0744H16.0744H16.0744H16.0744H16.0744H16.0744H16.0744H16.0744H16.0744H16.0744H16.0743H16.0743H16.0743H16.0743H16.0743H16.0743H16.0743H16.0743H16.0743H16.0742H16.0742H16.0742H16.0742H16.0742H16.0742H16.0742H16.0742H16.0742H16.0741H16.0741H16.0741H16.0741H16.0741H16.0741H16.0741H16.0741H16.0741H16.0741H16.074H16.074H16.074H16.074H16.074H16.074H16.074H16.074H16.074H16.0739H16.0739H16.0739H16.0739H16.0739H16.0739H16.0739H16.0739H16.0739H16.0739H16.0738H16.0738H16.0738H16.0738H16.0738H16.0738H16.0738H16.0738H16.0738H16.0738H16.0737H16.0737H16.0737H16.0737H16.0737H16.0737H16.0737H16.0737H16.0737H16.0736H16.0736H16.0736H16.0736H16.0736H16.0736H16.0736H16.0736H16.0736H16.0736H16.0735H16.0735H16.0735H16.0735H16.0735H16.0735H16.0735H16.0735H16.0735H16.0735H16.0734H16.0734H16.0734H16.0734H16.0734H16.0734H16.0734H16.0734H16.0734H16.0734H16.0734H16.0733H16.0733H16.0733H16.0733H16.0733H16.0733H16.0733H16.0733H16.0733H16.0733H16.0732H16.0732H16.0732H16.0732H16.0732H16.0732H16.0732H16.0732H16.0732H16.0732H16.0731H16.0731H16.0731H16.0731H16.0731H16.0731H16.0731H16.0731H16.0731H16.0731H16.0731H16.073H16.073H16.073H16.073H16.073H16.073H16.073H16.073H16.073H16.073H16.073H16.0729H16.0729H16.0729H16.0729H16.0729H16.0729H16.0729H16.0729H16.0729H16.0729H16.0729H16.0728H16.0728H16.0728H16.0728H16.0728H16.0728H16.0728H16.0728H16.0728H16.0728H16.0728H16.0728L24.9991 21.6751ZM24.9991 21.6751L25.729 24.1686L25.94 24.1069L24.9991 21.6751ZM7.34615 16.5161L7.56357 16.5491L7.56359 16.5491L7.56365 16.5487L7.56389 16.5471L7.56485 16.5407L7.56864 16.5159L7.58324 16.4205C7.59592 16.3378 7.61427 16.2186 7.63693 16.0725C7.68227 15.7802 7.74487 15.3804 7.81393 14.9502C7.95245 14.0872 8.11576 13.1093 8.21803 12.6271L8.21805 12.6271L8.21855 12.6246C8.23539 12.5403 8.25668 12.4577 8.28188 12.377L8.28579 12.3647C8.5974 11.3861 9.50075 10.7037 10.5382 10.7037H11.9213H12.112L12.139 10.5149C12.2555 9.69889 12.5388 8.75804 13.1776 8.03081L13.1776 8.0308C13.8619 7.25187 14.8267 6.84758 16.0726 6.84687L7.34615 16.5161ZM7.34615 16.5161L7.56357 16.5492M7.34615 16.5161L7.56357 16.5492M7.5629 16.5536L7.56285 16.5536C7.52626 16.7654 7.62966 16.9752 7.81511 17.0732L16.7493 21.7887L16.6466 22.2031H6.85447C6.70068 22.2031 6.5661 22.3167 6.54088 22.4759L7.5629 16.5536ZM7.5629 16.5536L7.56357 16.5492M7.5629 16.5536L7.56357 16.5492M19.2417 11.1345L19.255 11.5846C19.2643 11.8963 19.251 12.0985 19.2501 12.1115L19.25 12.1122C19.235 12.3095 19.3805 12.4771 19.5686 12.4919L19.5691 12.4919C19.577 12.4925 19.5857 12.4929 19.5958 12.4929C19.7721 12.4929 19.9258 12.3543 19.9401 12.1672L19.2417 11.1345ZM19.2417 11.1345L18.8949 11.4218M19.2417 11.1345L18.8949 11.4218M18.8949 11.4218C18.6442 11.6295 18.4842 11.9451 18.4842 12.2977C18.4842 12.9204 18.9833 13.4299 19.605 13.4299C20.2266 13.4299 20.7257 12.9204 20.7257 12.2977C20.7257 11.9418 20.5625 11.6235 20.3076 11.416L19.9371 11.1145M18.8949 11.4218L19.9371 11.1145M19.9371 11.1145L19.949 11.592M19.9371 11.1145L19.949 11.592M19.949 11.592C19.9572 11.9251 19.942 12.1418 19.9401 12.1671L19.949 11.592ZM6.45999 22.9896L6.54086 22.476L24.5699 25.7591C24.5655 25.7591 24.5617 25.7593 24.5591 25.7594H8.79078C7.34199 25.7594 6.23054 24.4464 6.45999 22.9896L6.24275 22.9554L6.45999 22.9896ZM13.6964 8.49863L13.6964 8.49865C13.1962 9.066 12.9604 9.80286 12.851 10.447L12.8074 10.7037H13.0678H18.9176H19.1831L19.1336 10.4428C19.0053 9.76672 18.7456 8.98915 18.2153 8.41114C17.6807 7.82821 16.9703 7.55328 16.0755 7.55328H16.0755H16.0754H16.0754H16.0754H16.0754H16.0754H16.0754H16.0754H16.0754H16.0754H16.0754H16.0754H16.0754H16.0753H16.0753H16.0753H16.0753H16.0753H16.0753H16.0753H16.0753H16.0753H16.0753H16.0753H16.0753H16.0752H16.0752H16.0752H16.0752H16.0752H16.0752H16.0752H16.0752H16.0752H16.0752H16.0752H16.0752H16.0752H16.0751H16.0751H16.0751H16.0751H16.0751H16.0751H16.0751H16.0751H16.0751H16.0751H16.0751H16.0751H16.075H16.075H16.075H16.075H16.075H16.075H16.075H16.075H16.075H16.075H16.075H16.075H16.0749H16.0749H16.0749H16.0749H16.0749H16.0749H16.0749H16.0749H16.0749H16.0749H16.0749H16.0749H16.0748H16.0748H16.0748H16.0748H16.0748H16.0748H16.0748H16.0748H16.0748H16.0748H16.0748H16.0748H16.0747H16.0747H16.0747H16.0747H16.0747H16.0747H16.0747H16.0747H16.0747H16.0747H16.0747H16.0747H16.0746H16.0746H16.0746H16.0746H16.0746H16.0746H16.0746H16.0746H16.0746H16.0746H16.0746H16.0746H16.0745H16.0745H16.0745H16.0745H16.0745H16.0745H16.0745H16.0745H16.0745H16.0745H16.0745H16.0745H16.0744H16.0744H16.0744H16.0744H16.0744H16.0744H16.0744H16.0744H16.0744H16.0744H16.0744H16.0744H16.0743H16.0743H16.0743H16.0743H16.0743H16.0743H16.0743H16.0743H16.0743H16.0743H16.0743H16.0743H16.0742H16.0742H16.0742H16.0742H16.0742H16.0742H16.0742H16.0742H16.0742H16.0742H16.0742H16.0742H16.0741H16.0741H16.0741H16.0741H16.0741H16.0741H16.0741H16.0741H16.0741H16.0741H16.0741H16.0741H16.074H16.074H16.074H16.074H16.074H16.074H16.074H16.074H16.074H16.074H16.074H16.074H16.0739H16.0739H16.0739H16.0739H16.0739H16.0739H16.0739H16.0739H16.0739H16.0739H16.0739H16.0739H16.0738H16.0738H16.0738H16.0738H16.0738H16.0738H16.0738H16.0738H16.0738H16.0738H16.0738H16.0738H16.0737H16.0737H16.0737H16.0737H16.0737H16.0737H16.0737H16.0737H16.0737H16.0737H16.0737H16.0737H16.0736H16.0736H16.0736H16.0736H16.0736H16.0736H16.0736H16.0736H16.0736H16.0736H16.0736H16.0736H16.0735H16.0735H16.0735H16.0735H16.0735H16.0735H16.0735H16.0735H16.0735H16.0735H16.0735H16.0735H16.0735H16.0734H16.0734H16.0734H16.0734H16.0734H16.0734H16.0734H16.0734H16.0734H16.0734H16.0734H16.0734H16.0733H16.0732C15.0548 7.55378 14.2645 7.85458 13.6964 8.49863ZM12.0662 11.5878L12.0647 11.1248L13.0006 12.0742L12.7821 12.0987C12.7821 12.0987 12.7821 12.0988 12.7821 12.0989C12.8039 12.2954 12.6645 12.4683 12.4774 12.49L12.4772 12.49C12.2905 12.5119 12.1172 12.3765 12.0947 12.1809L11.8762 12.206L12.0948 12.1813C12.0919 12.1559 12.0673 11.9318 12.0662 11.5878Z" fill="white" stroke="white" stroke-width="0.439826"/>
</g>
<defs>
<clipPath id="clip0_39_749">
<rect width="32.3855" height="32.3855" fill="white" transform="translate(0.0703125 0.882263)"/>
</clipPath>
</defs>
</svg>
