<svg width="13" height="14" viewBox="0 0 13 14" fill="none" xmlns="http://www.w3.org/2000/svg">
<g clip-path="url(#clip0_40_1671)">
<path d="M12.5759 8.01295C11.8805 8.84448 11.1819 9.67344 10.4949 10.5114C10.0184 11.0927 9.40612 11.3604 8.66824 11.363C7.61937 11.3663 6.56985 11.3682 5.52098 11.363C5.23638 11.3617 4.99815 11.4464 4.79855 11.6508C4.7039 11.7478 4.63822 11.8506 4.64853 11.9915C4.6717 12.3097 4.52039 12.5457 4.30019 12.7539C4.03556 13.0048 3.77607 13.2615 3.51788 13.5195C3.42838 13.6087 3.00664 13.9546 2.61452 13.5596C1.82191 12.7603 1.03252 11.9579 0.239268 11.1593C0.158139 11.0779 -0.10263 10.7268 0.259872 10.3886C0.565712 10.1034 0.850949 9.79629 1.14584 9.4995C1.25981 9.3844 1.37828 9.25185 1.5399 9.23504C1.86312 9.20141 2.02023 8.9848 2.21017 8.75655C3.09743 7.69029 4.25061 7.39479 5.56412 7.69546C5.9337 7.78017 6.29556 7.83254 6.67158 7.82931C7.33542 7.82284 7.99861 7.82995 8.66244 7.82737C8.92579 7.82672 9.18012 7.86681 9.39067 8.03234C9.55743 8.16296 9.67397 8.11899 9.80403 7.9832C10.1826 7.58812 10.5657 7.19757 10.9488 6.80702C11.5715 6.17205 12.0531 6.14942 12.6776 6.77663C13.1284 7.22796 12.6422 7.93341 12.5759 8.01295ZM7.13002 10.8567C7.13002 10.8554 7.13002 10.8541 7.13002 10.8535C7.68762 10.8535 8.24521 10.8613 8.80216 10.8509C9.29859 10.8419 9.72097 10.6492 10.0436 10.2657C10.7415 9.43484 11.4356 8.60007 12.1271 7.764C12.3712 7.4685 12.3744 7.15296 12.1503 6.95897C11.934 6.77146 11.6468 6.8109 11.3828 7.07795C10.9147 7.55191 10.4531 8.0317 9.98689 8.50825C9.87872 8.61882 9.81112 8.7365 9.79245 8.90009C9.72484 9.49756 9.36749 9.82151 8.76353 9.8325C8.19563 9.84285 7.62709 9.8422 7.05919 9.83315C6.85959 9.82992 6.5486 9.90686 6.54538 9.6049C6.54216 9.27448 6.86539 9.36565 7.07207 9.36048C7.63997 9.3469 8.20851 9.36371 8.77577 9.34367C9.10157 9.33203 9.29087 9.12123 9.28893 8.83608C9.287 8.55028 9.09126 8.36147 8.76739 8.33819C8.67146 8.33108 8.57423 8.33625 8.4783 8.33366C7.33864 8.29616 6.20413 8.37893 5.06125 8.12675C4.07226 7.90884 3.18242 8.29745 2.54048 9.1374C2.40913 9.3094 2.35891 9.46005 2.54563 9.6424C3.07618 10.1597 3.59708 10.688 4.11604 11.2169C4.25834 11.3617 4.37552 11.3701 4.52297 11.2253C4.80756 10.9447 5.16363 10.8528 5.55446 10.8561C6.07922 10.86 6.60462 10.8567 7.13002 10.8567ZM1.78972 9.70318C1.70988 9.69801 1.63905 9.72516 1.58497 9.77883C1.2875 10.0724 0.991958 10.3672 0.698351 10.6647C0.57859 10.7856 0.666801 10.8787 0.75308 10.9654C1.45362 11.6734 2.15737 12.3795 2.85469 13.0908C2.98668 13.2253 3.09485 13.2408 3.23071 13.1005C3.47667 12.8463 3.72972 12.5993 3.98211 12.3523C4.17206 12.1668 4.1785 11.9864 3.9892 11.7963C3.33824 11.1445 2.68857 10.4907 2.03761 9.83897C1.96872 9.77043 1.89338 9.70835 1.78972 9.70318Z" fill="#1B1D22"/>
<path d="M8.24343 1.08326C9.58205 1.50614 10.3882 2.77672 10.1866 4.15271C9.99026 5.49119 8.83966 6.50248 7.49653 6.51671C6.13796 6.53158 4.97576 5.55326 4.73624 4.1928C4.49929 2.84915 5.31186 1.54106 6.6376 1.0936C7.51971 0.796163 8.12689 1.04705 8.24343 1.08326ZM5.20756 3.74405C5.20884 5.01464 6.21007 6.01365 7.47786 6.00848C8.71539 6.0033 9.72241 4.98554 9.72177 3.74082C9.72112 2.48123 8.70509 1.47316 7.44245 1.47769C6.19526 1.48286 5.20691 2.48575 5.20756 3.74405Z" fill="#1B1D22"/>
<path d="M5.92637 9.55431C5.91543 9.69454 5.84014 9.77596 5.70437 9.77337C5.56988 9.77079 5.48751 9.69066 5.49266 9.54978C5.49781 9.41343 5.58082 9.32748 5.71338 9.32813C5.84787 9.32813 5.91736 9.42054 5.92637 9.55431Z" fill="#1B1D22"/>
<path d="M7.64576 4.26844C7.63867 4.12554 7.56205 4.04665 7.43585 4.01173C7.34313 3.98587 7.24591 3.97294 7.15641 3.93931C6.70956 3.77184 6.51704 3.24744 6.77974 2.85301C6.93492 2.61958 7.1886 2.45664 7.21307 2.13463C7.22015 2.03893 7.34056 1.99625 7.44809 2.015C7.57042 2.03699 7.64254 2.12557 7.6464 2.23808C7.65348 2.445 7.75779 2.5685 7.92069 2.67778C8.04882 2.76378 8.15506 2.89504 8.03723 3.05863C7.92327 3.2164 7.77711 3.16467 7.63803 3.08191C7.52471 3.01466 7.40752 2.95647 7.28003 3.04829C7.20599 3.10195 7.15899 3.17567 7.17895 3.26943C7.21436 3.43754 7.35022 3.46858 7.49316 3.49639C7.81316 3.55911 8.04367 3.73434 8.12802 4.06152C8.21237 4.38935 8.09582 4.6564 7.83763 4.85879C7.72753 4.94544 7.66829 5.04243 7.65863 5.18209C7.64833 5.33146 7.5936 5.46596 7.41847 5.47242C7.24333 5.47889 7.17122 5.35215 7.16349 5.2002C7.15512 5.02949 7.07593 4.92345 6.93685 4.83874C6.86538 4.79542 6.80485 4.72882 6.74819 4.66545C6.65483 4.56006 6.60847 4.43979 6.72115 4.32081C6.82803 4.2083 6.94973 4.22576 7.06949 4.30723C7.14868 4.3609 7.22337 4.43009 7.31158 4.46113C7.48929 4.52449 7.59553 4.43461 7.64576 4.26844Z" fill="#1B1D22"/>
</g>
<defs>
<clipPath id="clip0_40_1671">
<rect width="12.7944" height="12.7944" fill="white" transform="translate(0.0725098 0.950073)"/>
</clipPath>
</defs>
</svg>
