<svg width="43" height="36" viewBox="0 0 43 36" fill="none" xmlns="http://www.w3.org/2000/svg">
<path d="M4.64011 21.1501C5.86283 19.0747 9.99189 12.0684 10.5916 11.0453C11.1914 10.0217 11.8183 9.01189 12.3706 7.96357C12.6621 7.41075 13.0242 7.24229 13.6403 7.24427C21.4775 7.26601 29.3152 7.2497 37.1524 7.27391C37.7996 7.27589 38.1637 7.101 38.4863 6.52596C38.8242 5.92324 39.1676 5.32399 39.5134 4.72523C40.3957 3.19721 41.2978 1.67808 42.192 0.147098C41.9672 -0.0875645 41.7014 0.0290256 41.4737 0.0285315C30.7395 0.0211212 20.0053 0.0270495 9.2716 0.00728844C8.71632 0.00630039 8.41496 0.168835 8.14523 0.646063C8.11707 0.695466 8.08841 0.744869 8.06025 0.794765H8.06075C6.94672 2.76049 5.79712 4.70597 4.65987 6.65885C4.49289 6.94588 0.1015 14.298 0.335174 14.6897C1.15773 16.0661 1.9699 17.4523 2.79246 18.8598C3.23412 19.6157 3.67825 20.3765 4.12978 21.1481C4.2439 21.3428 4.5255 21.3447 4.64011 21.1501Z" fill="#1B1D22"/>
<path d="M42.0424 29.1809C42.0448 29.1764 42.0473 29.172 42.0498 29.167C42.0606 29.1468 42.0705 29.127 42.0799 29.1072C42.0804 29.1063 42.0809 29.1053 42.0814 29.1043C42.1026 29.0598 42.1204 29.0158 42.1347 28.9714C42.1347 28.9704 42.1352 28.9699 42.1352 28.9689C42.1421 28.9477 42.1476 28.9259 42.1525 28.9047C42.153 28.9032 42.153 28.9022 42.1535 28.9007C42.1678 28.8321 42.1718 28.7609 42.1604 28.6863C42.1594 28.6809 42.1589 28.675 42.158 28.6695C42.156 28.6592 42.154 28.6483 42.1515 28.6374C42.1496 28.629 42.1471 28.6206 42.1451 28.6122C42.1417 28.6004 42.1382 28.588 42.1342 28.5762C42.1298 28.5623 42.1249 28.5485 42.1189 28.5342C42.116 28.5268 42.113 28.5198 42.1095 28.5124C42.1041 28.4991 42.0977 28.4863 42.0913 28.4724C42.0883 28.466 42.0848 28.4591 42.0814 28.4527C42.071 28.4324 42.0601 28.4122 42.0478 28.3914C41.6817 27.7803 41.3186 27.1672 40.9565 26.5526C40.955 26.5507 40.954 26.5482 40.9525 26.5462C40.9698 26.5141 40.9965 26.4637 40.9565 26.5358C40.9545 26.5398 40.9535 26.5418 40.952 26.5447C40.873 26.4104 40.7939 26.2755 40.7144 26.1406C40.7964 26.2701 40.8774 26.401 40.9565 26.5353C39.9976 24.9095 39.0466 23.2723 38.0798 21.6218C37.6939 21.8633 37.5932 22.2605 37.402 22.5826C36.2909 24.4535 35.1833 26.3264 34.1009 28.214C34.0693 28.2694 34.0367 28.3188 34.0036 28.3657V28.384C33.8218 28.6404 33.6103 28.7629 33.2447 28.7619C31.655 28.758 30.0647 28.7555 28.4749 28.754C27.97 28.7535 27.4651 28.753 26.9602 28.753C25.7133 28.752 24.4664 28.7515 23.219 28.751C23.1335 28.751 23.0481 28.751 22.9626 28.751C21.1352 28.7506 19.3078 28.7506 17.4799 28.7496C17.4661 28.7496 17.4522 28.7486 17.4384 28.7471C17.3682 28.7402 17.2927 28.7175 17.1825 28.6972C17.1869 28.6799 17.1934 28.6636 17.1978 28.6463H17.1963C17.3445 28.1054 17.6978 27.6869 17.9626 27.229C18.9224 25.5646 19.9209 23.9215 20.8521 22.2413C20.8684 22.2116 20.8847 22.1835 20.9015 22.1568C21.1515 21.7537 21.4395 21.6425 21.9157 21.648C24.0509 21.6712 26.1866 21.6564 28.3223 21.6633C28.5441 21.6638 28.7664 21.6647 28.9882 21.6662C29.0243 21.6662 29.0594 21.6657 29.0934 21.6647C29.2076 21.6613 29.3118 21.6499 29.4081 21.6237C29.6008 21.5709 29.7594 21.4568 29.8943 21.2211C30.165 20.7493 30.4377 20.2785 30.7104 19.8082C30.7776 19.6926 30.8443 19.577 30.9115 19.4614C30.9371 19.4169 30.9633 19.373 30.989 19.3285C31.2089 18.9506 31.4292 18.5726 31.65 18.1952C32.316 17.055 32.9844 15.9163 33.6494 14.7756C33.6968 14.6945 33.7141 14.5967 33.7422 14.4979C33.7462 14.4836 33.7501 14.4698 33.7551 14.4559C33.7546 14.4554 33.7541 14.4554 33.7536 14.4549C33.7541 14.4535 33.7546 14.4515 33.7551 14.45C33.5095 14.2623 33.2497 14.3537 33.013 14.3537C27.9004 14.3467 22.7872 14.3532 17.6745 14.3408C17.2111 14.3398 16.9137 14.4322 16.6539 14.8798C12.9764 21.2043 9.27956 27.517 5.58622 33.8326H5.58968C5.58869 33.8346 5.58721 33.8366 5.58622 33.8385C5.45234 34.0673 5.31846 34.296 5.18508 34.5247C4.97561 34.8834 4.76565 35.2416 4.55618 35.6002C4.50925 35.6807 4.47812 35.7707 4.41489 35.9223C4.406 35.9441 4.39612 35.9668 4.38574 35.9915C5.93352 35.9915 7.47884 35.9915 9.02316 35.9915C15.57 35.9915 23.6127 35.992 30.4495 35.9954C31.2005 35.9959 31.9514 35.9964 32.7023 35.9964C34.3178 35.9974 35.9327 35.9984 37.5477 36.0004C37.6268 36.0004 37.6979 35.9949 37.7631 35.9836C37.9113 35.9579 38.0269 35.9011 38.1277 35.8072C38.2028 35.7371 38.2695 35.6467 38.3357 35.5325C39.5322 33.4502 40.7524 31.3817 41.9702 29.3118C41.9831 29.29 41.9954 29.2688 42.0073 29.248C42.0102 29.2431 42.0127 29.2382 42.0157 29.2332C42.0236 29.2149 42.033 29.1976 42.0424 29.1809Z" fill="#1B1D22"/>
</svg>
