<svg width="14" height="15" viewBox="0 0 14 15" fill="none" xmlns="http://www.w3.org/2000/svg">
<path d="M0.947638 6.84464C1.67141 5.98943 2.39853 5.13688 3.11358 4.27503C3.6095 3.67718 4.24681 3.40186 5.01481 3.3992C6.1065 3.39588 7.19885 3.39388 8.29053 3.3992C8.58674 3.40053 8.8347 3.31342 9.04245 3.10327C9.14096 3.00352 9.20932 2.89778 9.1986 2.75281C9.17447 2.42562 9.33196 2.18289 9.56115 1.96876C9.83659 1.71073 10.1067 1.44672 10.3754 1.18138C10.4685 1.08961 10.9075 0.733826 11.3156 1.14015C12.1406 1.96211 12.9622 2.78739 13.7878 3.60868C13.8723 3.69247 14.1437 4.05358 13.7664 4.40138C13.4481 4.69465 13.1512 5.01053 12.8442 5.31577C12.7256 5.43415 12.6023 5.57047 12.4341 5.58776C12.0977 5.62234 11.9342 5.84512 11.7365 6.07987C10.813 7.17648 9.61275 7.48039 8.24563 7.17116C7.86097 7.08405 7.48434 7.03018 7.09297 7.0335C6.40204 7.04015 5.71178 7.03284 5.02085 7.0355C4.74675 7.03616 4.48204 6.99493 4.2629 6.82469C4.08933 6.69036 3.96803 6.73558 3.83266 6.87523C3.43861 7.28155 3.03986 7.68322 2.64112 8.08489C1.99308 8.73794 1.4918 8.76121 0.841754 8.11615C0.372645 7.65197 0.878612 6.92644 0.947638 6.84464ZM6.61582 3.92057C6.61582 3.9219 6.61582 3.92323 6.61582 3.9239C6.03546 3.9239 5.45511 3.91592 4.87542 3.92656C4.35873 3.93587 3.91911 4.13404 3.58336 4.5284C2.85691 5.38294 2.13448 6.24081 1.41474 7.10134C1.16075 7.40525 1.1574 7.72977 1.39061 7.92928C1.61578 8.12213 1.91467 8.08157 2.18944 7.80692C2.67664 7.31946 3.15714 6.82602 3.64233 6.3359C3.75492 6.22219 3.82529 6.10115 3.84472 5.93291C3.91509 5.31843 4.28702 4.98526 4.91563 4.97396C5.50671 4.96332 6.09846 4.96398 6.68953 4.97329C6.89728 4.97662 7.22097 4.89748 7.22432 5.20804C7.22767 5.54786 6.89125 5.4541 6.67613 5.45942C6.08505 5.47338 5.49331 5.45609 4.9029 5.47671C4.5638 5.48868 4.36677 5.70547 4.36878 5.99874C4.37079 6.29268 4.57452 6.48686 4.91161 6.5108C5.01146 6.51812 5.11266 6.5128 5.21251 6.51546C6.39869 6.55403 7.5795 6.46891 8.76903 6.72826C9.79839 6.95237 10.7245 6.5527 11.3927 5.68885C11.5294 5.51195 11.5817 5.357 11.3873 5.16947C10.8351 4.63746 10.293 4.09414 9.75282 3.55016C9.60471 3.4012 9.48274 3.39255 9.32928 3.54152C9.03307 3.83013 8.66247 3.92456 8.25569 3.92124C7.70951 3.91658 7.16266 3.92057 6.61582 3.92057ZM12.1741 5.10629C12.2572 5.11161 12.3309 5.08368 12.3872 5.02849C12.6968 4.72657 13.0044 4.42332 13.31 4.11742C13.4347 3.99306 13.3428 3.8973 13.253 3.80819C12.5239 3.08 11.7914 2.3538 11.0656 1.62228C10.9283 1.48396 10.8157 1.468 10.6743 1.61231C10.4183 1.87366 10.1549 2.1277 9.89221 2.38173C9.69451 2.57259 9.68781 2.75813 9.88484 2.95364C10.5624 3.62398 11.2386 4.29631 11.9161 4.96664C11.9878 5.03713 12.0662 5.10097 12.1741 5.10629Z" fill="#1B1D22"/>
<path d="M7.86865 5.25912C7.88004 5.1149 7.9584 5.03116 8.09972 5.03381C8.2397 5.03647 8.32542 5.11888 8.32007 5.26377C8.31471 5.404 8.22831 5.4924 8.09034 5.49173C7.95036 5.49173 7.87803 5.39669 7.86865 5.25912Z" fill="#1B1D22"/>
<path d="M6.41242 8.41681C7.80567 8.85173 8.64471 10.1585 8.43495 11.5736C8.23055 12.9502 7.03298 13.9903 5.63504 14.0049C4.22101 14.0202 3.01138 13.0141 2.76208 11.6149C2.51546 10.233 3.3612 8.88764 4.74105 8.42745C5.65983 8.12154 6.29179 8.3789 6.41242 8.41681ZM3.2533 11.1533C3.25465 12.4601 4.29674 13.4875 5.61627 13.4822C6.90431 13.4769 7.95244 12.4302 7.95177 11.15C7.9511 9.85457 6.89359 8.81781 5.57942 8.82247C4.28132 8.82779 3.25263 9.85922 3.2533 11.1533Z" fill="#1B1D22"/>
<path d="M5.79093 11.6927C5.78356 11.5457 5.70381 11.4646 5.57246 11.4287C5.47596 11.4021 5.37476 11.3888 5.28161 11.3542C4.81652 11.182 4.61615 10.6426 4.88957 10.237C5.05108 9.9969 5.31512 9.82932 5.34058 9.49814C5.34796 9.39972 5.47328 9.35583 5.58519 9.37511C5.71252 9.39772 5.78758 9.48883 5.7916 9.60454C5.79897 9.81735 5.90754 9.94437 6.07709 10.0568C6.21045 10.1452 6.32102 10.2802 6.19838 10.4484C6.07977 10.6107 5.92764 10.5575 5.78289 10.4724C5.66494 10.4032 5.54297 10.3434 5.41028 10.4378C5.33321 10.493 5.28429 10.5688 5.30507 10.6652C5.34193 10.8381 5.48333 10.8701 5.6321 10.8987C5.96517 10.9632 6.20509 11.1434 6.29288 11.4799C6.38067 11.817 6.25937 12.0917 5.99064 12.2998C5.87604 12.389 5.81438 12.4887 5.80433 12.6324C5.79361 12.786 5.73665 12.9243 5.55436 12.9309C5.37208 12.9376 5.29702 12.8073 5.28898 12.651C5.28027 12.4754 5.19784 12.3663 5.05309 12.2792C4.9787 12.2347 4.91571 12.1662 4.85673 12.101C4.75956 11.9926 4.71131 11.8689 4.82859 11.7466C4.93983 11.6308 5.06649 11.6488 5.19114 11.7326C5.27357 11.7878 5.35131 11.8589 5.44312 11.8909C5.62808 11.956 5.73866 11.8636 5.79093 11.6927Z" fill="#1B1D22"/>
</svg>
