<svg width="51" height="39" viewBox="0 0 51 39" fill="none" xmlns="http://www.w3.org/2000/svg">
<path d="M50.1834 36.6595C50.2064 36.2976 50.2265 35.9357 50.2408 35.5737C50.2523 35.3267 50.2609 35.0797 50.2695 34.8298C50.2695 34.8068 50.2695 34.7839 50.2724 34.758C50.4677 28.3527 49.4797 21.8785 47.0037 16.0017C46.9606 15.8868 46.9175 15.7719 46.8745 15.657C45.849 13.0346 44.8179 11.2825 43.465 9.45569C42.7555 8.44751 41.9886 7.48241 41.17 6.56613C41.1413 6.52879 41.1126 6.4972 41.0838 6.45986C39.4753 4.50668 38.3609 3.60764 37.0884 2.72009C37.0396 2.68275 36.9879 2.64541 36.9391 2.60807C36.896 2.5736 36.8529 2.53626 36.807 2.50179C35.8763 1.76648 34.7274 0.69223 33.5756 0.16085C33.5899 0.189573 33.6043 0.215424 33.6215 0.244148C33.4894 0.143616 33.3515 0.0574465 33.1878 0.00287232C33.228 0.0603188 33.2625 0.109148 33.3027 0.163723C33.2625 0.140744 33.2252 0.117765 33.1849 0.0947867C33.1878 0.097659 33.1907 0.103404 33.1936 0.106276C33.3199 0.28436 34.9399 2.59371 36.7983 6.68103C37.0396 7.3273 37.3441 8.11432 37.7376 9.1024L33.679 16.2057L33.7307 17.4092L25.1941 29.8923L16.5772 17.1478L16.6174 16.2028L12.5588 9.09953C12.9552 8.11145 13.2596 7.32443 13.498 6.67816C15.3593 2.59084 16.9793 0.278616 17.1057 0.103404C17.1085 0.100531 17.1114 0.0947867 17.1143 0.0919144C17.0741 0.114893 17.0367 0.137872 16.9965 0.16085C17.0339 0.106276 17.0683 0.0574465 17.1085 0C16.9477 0.0574465 16.807 0.140744 16.6748 0.241275C16.6892 0.212552 16.7035 0.186701 16.7208 0.157978C15.569 0.689358 14.4201 1.76648 13.4894 2.49892C13.4463 2.53339 13.4032 2.57073 13.3573 2.6052C13.3085 2.64254 13.2568 2.67988 13.2079 2.71722C11.9355 3.60764 10.821 4.50668 9.21253 6.45699C9.1838 6.49433 9.15508 6.52592 9.12636 6.56326C8.30774 7.48241 7.54083 8.44751 6.83137 9.45282C5.4785 11.2796 4.44734 13.0289 3.42192 15.6542C3.37596 15.7691 3.33575 15.884 3.29266 15.9988C0.819591 21.8785 -0.171362 28.3527 0.0239566 34.758C0.0239566 34.781 0.0239566 34.804 0.0268289 34.8298C0.0354459 35.0768 0.0440629 35.3239 0.0555522 35.5737C0.0727861 35.9357 0.0900201 36.2976 0.112999 36.6595C0.112999 36.6595 0.112999 36.6595 0.112999 36.6624C0.115871 36.7169 0.121616 36.7686 0.12736 36.8232C0.156084 37.1966 0.202041 37.57 0.247998 37.9463C0.265232 38.0899 0.282466 38.2364 0.2997 38.38C2.40511 38.1588 4.43872 37.9463 6.53552 37.728C6.54413 37.6418 6.54988 37.5643 6.5585 37.4781L7.81657 37.2971C7.50636 30.9752 8.08945 25.2966 9.08901 20.3878C9.12061 20.27 9.14933 20.1522 9.18093 20.0345C9.39348 20.1321 15.9797 27.3675 16.1291 27.4192L16.2267 25.1759L16.221 25.5982L25.197 38.334L34.0983 25.7102L34.173 27.4163C34.3195 27.3646 40.9058 20.1321 41.1212 20.0316C41.1528 20.1494 41.1844 20.2671 41.2131 20.3849C42.2127 25.2937 42.7929 30.9723 42.4855 37.2943L43.7436 37.4752C43.7522 37.5585 43.758 37.6389 43.7666 37.7251C45.8634 37.9434 47.897 38.1588 50.0024 38.3771C50.0196 38.2306 50.034 38.087 50.0512 37.9434C50.0972 37.5671 50.1403 37.1937 50.1719 36.8203C50.1748 36.7686 50.1805 36.7141 50.1834 36.6595Z" fill="#1B1D22"/>
</svg>
