<svg width="13" height="13" viewBox="0 0 13 13" fill="none" xmlns="http://www.w3.org/2000/svg">
<path d="M11.8889 9.66708L11.8889 9.66702C11.8674 9.59332 11.8173 9.53196 11.7507 9.49654L11.8889 9.66708ZM11.8889 9.66708L12.3222 11.1474L12.4475 11.1107M11.8889 9.66708L12.4475 11.1107M1.4089 6.60436L1.53797 6.62396L1.53798 6.6239L1.53802 6.62367L1.53816 6.62272L1.53873 6.61896L1.54098 6.6042L1.54965 6.54758L1.58152 6.34099C1.60844 6.16748 1.6456 5.93013 1.6866 5.67469C1.76884 5.16235 1.86579 4.58184 1.92651 4.29553L1.92652 4.29554L1.92681 4.29405C1.93681 4.24404 1.94945 4.195 1.96442 4.14704L1.96613 4.14166L1.96662 4.14182L1.9678 4.13644C2.15378 3.55726 2.6892 3.15371 3.30392 3.15371H4.12501H4.23824L4.25425 3.04161C4.32343 2.55717 4.49158 1.99862 4.87086 1.56689L4.87087 1.56688C5.27709 1.10446 5.84988 0.864439 6.58954 0.864015L1.4089 6.60436ZM1.4089 6.60436L1.53797 6.62398M1.4089 6.60436L1.53797 6.62398M4.77278 1.48072C5.20804 0.98524 5.81927 0.733885 6.58954 0.733459H6.59108H6.59192H6.59276H6.5943L4.77278 1.48072ZM4.77278 1.48072C4.37 1.9392 4.19599 2.52612 4.12501 3.02316L4.77278 1.48072ZM12.4475 11.1107L12.3222 11.1474C12.4679 11.6453 12.0831 12.09 11.6336 12.0917L11.6282 12.0918H2.26653C1.40643 12.0918 0.746593 11.3123 0.882808 10.4475L0.753843 10.4271L0.882809 10.4474L0.930817 10.1426C0.945765 10.048 1.02568 9.98056 1.117 9.98056H6.9303L6.99124 9.73454L1.68731 6.93507C1.68729 6.93506 1.68727 6.93505 1.68725 6.93505C1.57719 6.87686 1.51582 6.75235 1.53755 6.62658L1.53797 6.62398M12.4475 11.1107L1.53797 6.62398M4.09827 4.04559L4.228 4.03092C4.22629 4.01581 4.21172 3.88276 4.21104 3.67854L4.21013 3.4037L3.99767 3.57805C3.84748 3.7013 3.75127 3.88951 3.75127 4.10003C3.75127 4.46971 4.04758 4.77214 4.41662 4.77214C4.78567 4.77214 5.08197 4.46971 5.08197 4.10003C5.08197 3.88981 4.98617 3.70154 4.83599 3.57833L4.62173 3.40254L4.62263 3.67968C4.6232 3.85644 4.63491 3.97172 4.63603 3.98184C4.64908 4.09854 4.56631 4.20126 4.45516 4.21419L4.45505 4.2142C4.34423 4.22718 4.24131 4.14679 4.22797 4.03069L4.09827 4.04559ZM4.09827 4.04559C4.11969 4.23201 4.28629 4.36542 4.47024 4.34387L4.75923 3.88182C4.73531 3.84312 4.70522 3.80878 4.67037 3.78019L4.75318 3.67926L4.88374 3.67884C4.88395 3.74407 4.88577 3.79998 4.88793 3.84394C4.92844 3.9202 4.95142 4.00741 4.95142 4.10003C4.95142 4.39916 4.71202 4.64158 4.41662 4.64158C4.12123 4.64158 3.88183 4.39916 3.88183 4.10003C3.88183 4.00184 3.90771 3.90975 3.95292 3.83032C3.95127 3.78536 3.95012 3.73479 3.94993 3.67941L4.08049 3.67898L4.16331 3.7799C4.13343 3.80442 4.10704 3.83312 4.08503 3.86514C4.08983 3.96855 4.09688 4.03328 4.09827 4.04559ZM4.68157 5.75174L11.7505 9.49648L6.58961 0.864015H6.58962H6.58962H6.58963H6.58963H6.58964H6.58964H6.58965H6.58965H6.58966H6.58966H6.58967H6.58967H6.58968H6.58968H6.58969H6.58969H6.5897H6.58971H6.58971H6.58972H6.58972H6.58973H6.58973H6.58974H6.58974H6.58975H6.58975H6.58976H6.58976H6.58977H6.58978H6.58978H6.58979H6.58979H6.5898H6.5898H6.58981H6.58981H6.58982H6.58982H6.58983H6.58984H6.58984H6.58985H6.58985H6.58986H6.58986H6.58987H6.58987H6.58988H6.58989H6.58989H6.5899H6.5899H6.58991H6.58991H6.58992H6.58993H6.58993H6.58994H6.58994H6.58995H6.58995H6.58996H6.58997H6.58997H6.58998H6.58998H6.58999H6.59H6.59H6.59001H6.59001H6.59002H6.59002H6.59003H6.59004H6.59004H6.59005H6.59005H6.59006H6.59007H6.59007H6.59008H6.59008H6.59009H6.5901H6.5901H6.59011H6.59011H6.59012H6.59013H6.59013H6.59014H6.59014H6.59015H6.59016H6.59016H6.59017H6.59017H6.59018H6.59019H6.59019H6.5902H6.5902H6.59021H6.59022H6.59022H6.59023H6.59023H6.59024H6.59025H6.59025H6.59026H6.59027H6.59027H6.59028H6.59028H6.59029H6.5903H6.5903H6.59031H6.59031H6.59032H6.59033H6.59033H6.59034H6.59035H6.59035H6.59036H6.59036H6.59037H6.59038H6.59038H6.59039H6.5904H6.5904H6.59041H6.59041H6.59042H6.59043H6.59043H6.59044H6.59045H6.59045H6.59046H6.59047H6.59047H6.59048H6.59048H6.59049H6.5905H6.5905H6.59051H6.59052H6.59052H6.59053H6.59054H6.59054H6.59055H6.59055H6.59056H6.59057H6.59057H6.59058H6.59059H6.59059H6.5906H6.59061H6.59061H6.59062H6.59062H6.59063H6.59064H6.59064H6.59065H6.59066H6.59066H6.59067H6.59068H6.59068H6.59069H6.5907H6.5907H6.59071H6.59072H6.59072H6.59073H6.59073H6.59074H6.59075H6.59075H6.59076H6.59077H6.59077H6.59078H6.59079H6.59079H6.5908H6.59081H6.59081H6.59082H6.59083H6.59083H6.59084H6.59085H6.59085H6.59086H6.59087H6.59087H6.59088H6.59088H6.59089H6.5909H6.5909H6.59091H6.59092H6.59092H6.59093H6.59094H6.59094H6.59095H6.59096H6.59096H6.59097H6.59098H6.59098H6.59099H6.591H6.591H6.59101H6.59102H6.59102H6.59103H6.59104H6.59104H6.59105H6.59105H6.59106H6.59107H6.59107H6.59108H6.59109H6.59109H6.5911H6.5911H6.59111H6.59111H6.59112H6.59112H6.59113H6.59113H6.59114H6.59114H6.59115H6.59115H6.59116H6.59116H6.59116H6.59117H6.59117H6.59118H6.59118H6.59119H6.59119H6.5912H6.5912H6.59121H6.59121H6.59122H6.59122H6.59123H6.59123H6.59124H6.59124H6.59125H6.59125H6.59126H6.59126H6.59127H6.59127H6.59128H6.59128H6.59129H6.59129H6.5913H6.5913H6.59131H6.59131H6.59132H6.59132H6.59133H6.59133H6.59134H6.59134H6.59135H6.59135H6.59136H6.59136H6.59137H6.59137H6.59138H6.59138H6.59139H6.59139H6.5914H6.5914H6.59141H6.59141H6.59142H6.59142H6.59143H6.59143H6.59144H6.59144H6.59145H6.59145H6.59146H6.59146H6.59146H6.59147H6.59148H6.59148H6.59149H6.59149H6.59149H6.5915H6.5915H6.59151H6.59151H6.59152H6.59152H6.59153H6.59153H6.59154H6.59154H6.59155H6.59155H6.59156H6.59156H6.59157H6.59157H6.59158H6.59158H6.59159H6.59159H6.5916H6.5916H6.59161H6.59161H6.59162H6.59162H6.59163H6.59163H6.59164H6.59164H6.59165H6.59165H6.59166H6.59166H6.59167H6.59167H6.59168H6.59168H6.59169H6.59169H6.5917H6.5917H6.59171H6.59171H6.59172H6.59172H6.59173H6.59173H6.59174H6.59174H6.59175H6.59175H6.59176H6.59176H6.59177H6.59177H6.59178H6.59178H6.59178H6.59179H6.59179H6.5918H6.5918H6.59181H6.59181H6.59182H6.59182H6.59183H6.59183H6.59184H6.59184H6.59185H6.59185H6.59186H6.59186H6.59187H6.59187H6.59188H6.59188H6.59189H6.59189H6.5919H6.5919H6.59191H6.59191H6.59192H6.59193H6.59193H6.59194H6.59194H6.59195H6.59195H6.59196H6.59196H6.59197H6.59197H6.59198H6.59198H6.59199H6.59199H6.592H6.592H6.592H6.59201H6.59201H6.59202H6.59202H6.59203H6.59203H6.59204H6.59204H6.59205H6.59205H6.59206H6.59206H6.59207H6.59207H6.59208H6.59208H6.59209H6.59209H6.5921H6.5921H6.59211H6.59211H6.59212H6.59212H6.59213H6.59213H6.59214H6.59214H6.59215H6.59215H6.59216H6.59216H6.59217H6.59217H6.59218H6.59218H6.59219H6.59219H6.5922H6.5922H6.59221H6.59221H6.59222H6.59222H6.59223H6.59223H6.59224H6.59224H6.59225H6.59225H6.59226H6.59226H6.59227H6.59227H6.59228H6.59228H6.59229H6.59229H6.5923H6.5923H6.59231H6.59231H6.59231H6.59232H6.59232H6.59233H6.59233H6.59234H6.59234H6.59235H6.59235H6.59236H6.59236H6.59237H6.59237H6.59238H6.59238H6.59239H6.59239H6.5924H6.5924H6.59241H6.59241H6.59242H6.59242H6.59243H6.59243H6.59244H6.59244H6.59245H6.59245H6.59246H6.59246H6.59247H6.59247H6.59248H6.59248H6.59249H6.59249H6.5925H6.5925H6.59251H6.59251H6.59252H6.59252H6.59253H6.59253H6.59254H6.59254H6.59255H6.59255H6.59256H6.59256H6.59257H6.59257H6.59258H6.59258H6.59259H6.59259H6.5926H6.5926H6.59261H6.59261H6.59262H6.59262H6.59263H6.59263H6.59263H6.59264H6.59264H6.59265H6.59265H6.59266H6.59266H6.59267H6.59267H6.59268H6.59268H6.59269H6.59269H6.5927H6.5927H6.59271H6.59271H6.59272H6.59272H6.59273H6.59273H6.59274H6.59274H6.59275H6.59275H6.59276H6.59277H6.59277H6.59278H6.59279H6.59279H6.5928H6.59281H6.59281H6.59282H6.59283H6.59283H6.59284H6.59285H6.59285H6.59286H6.59286H6.59287H6.59288H6.59288H6.59289H6.5929H6.5929H6.59291H6.59292H6.59292H6.59293H6.59293H6.59294H6.59295H6.59295H6.59296H6.59297H6.59297H6.59298H6.59298H6.59299H6.593H6.593H6.59301H6.59301H6.59302H6.59303H6.59303H6.59304H6.59305H6.59305H6.59306H6.59306H6.59307H6.59308H6.59308H6.59309H6.59309H6.5931H6.59311H6.59311H6.59312H6.59312H6.59313H6.59314H6.59314H6.59315H6.59315H6.59316H6.59317H6.59317H6.59318H6.59318H6.59319H6.59319H6.5932H6.59321H6.59321H6.59322H6.59322H6.59323H6.59324H6.59324H6.59325H6.59325H6.59326H6.59327H6.59327H6.59328H6.59328H6.59329H6.59329H6.5933H6.59331H6.59331H6.59332H6.59332H6.59333H6.59334H6.59334H6.59335H6.59335H6.59336H6.59336H6.59337H6.59338H6.59338H6.59339H6.59339H6.5934H6.5934H6.59341H6.59342H6.59342H6.59343H6.59343H6.59344H6.59345H6.59345H6.59346H6.59346H6.59347H6.59347H6.59348H6.59349H6.59349H6.5935H6.5935H6.59351H6.59351H6.59352H6.59353H6.59353H6.59354H6.59354H6.59355H6.59355H6.59356H6.59357H6.59357H6.59358H6.59358H6.59359H6.59359H6.5936H6.59361H6.59361H6.59362H6.59362H6.59363H6.59363H6.59364H6.59365H6.59365H6.59366H6.59366H6.59367H6.59368H6.59368H6.59369H6.59369H6.5937H6.5937H6.59371H6.59372H6.59372H6.59373H6.59373H6.59374H6.59374H6.59375H6.59376H6.59376H6.59377H6.59377H6.59378H6.59379H6.59379H6.5938H6.5938H6.59381H6.59381H6.59382H6.59383H6.59383H6.59384H6.59384H6.59385H6.59386H6.59386H6.59387H6.59387H6.59388H6.59389H6.59389H6.5939H6.5939H6.59391H6.59391H6.59392H6.59393H6.59393H6.59394H6.59395H6.59395H6.59396H6.59396H6.59397H6.59398H6.59398H6.59399H6.59399H6.594H6.59401H6.59401H6.59402H6.59402H6.59403H6.59404H6.59404H6.59405H6.59405H6.59406H6.59407H6.59407H6.59408H6.59408H6.59409H6.5941H6.5941H6.59411H6.59412H6.59412H6.59413H6.59413H6.59414H6.59415H6.59415H6.59416H6.59417H6.59417H6.59418H6.59419H6.59419H6.5942H6.5942H6.59421H6.59422H6.59422H6.59423H6.59424H6.59424H6.59425H6.59426H6.59426H6.59427H6.59427H6.59428H6.59429H6.59429H6.5943C7.2531 0.864015 7.77792 1.08292 8.16688 1.50829L8.16688 1.50829C8.56326 1.94173 8.74863 2.52207 8.83191 3.02487L8.82913 3.02544L8.83208 3.04389L8.84974 3.15371H8.85272H8.96098H8.96252H8.96392H9.13013H9.80391C10.4589 3.15371 11.0281 3.61406 11.1718 4.26429L11.3571 5.10311C11.3571 5.10312 11.3571 5.10313 11.3571 5.10314C11.4031 5.31163 11.2463 5.50581 11.0405 5.50581H5.22498H4.74268L4.68157 5.75174ZM11.6242 12.092C11.6236 12.092 11.624 12.092 11.625 12.0919L11.6242 12.092ZM8.47884 3.67668L8.47095 3.40946L9.01572 4.0324L8.88554 4.02249C8.88554 4.0225 8.88554 4.02251 8.88554 4.02251C8.87706 4.13361 8.78577 4.21586 8.68112 4.21586C8.67512 4.21586 8.66999 4.21567 8.66526 4.21529L8.66498 4.21527C8.55334 4.20654 8.46693 4.10702 8.47586 3.98987L8.47589 3.98947C8.47645 3.98177 8.48431 3.86173 8.47884 3.67668ZM8.34961 3.87292C8.37227 3.83827 8.39996 3.80731 8.43162 3.78108L8.34834 3.68054L8.21784 3.68439C8.21956 3.7426 8.21988 3.79373 8.21953 3.83606C8.17638 3.91416 8.15178 4.00418 8.15178 4.10003C8.15178 4.39916 8.39118 4.64158 8.68658 4.64158C8.98198 4.64158 9.22137 4.39916 9.22137 4.10003L8.34961 3.87292ZM5.17886 1.84462L5.17885 1.84463C4.88186 2.18145 4.74193 2.6189 4.67697 3.00129L4.65108 3.15371H4.80568H8.27848H8.43614L8.40675 2.99882C8.33058 2.59744 8.17639 2.13583 7.8616 1.79267C7.5442 1.44661 7.12247 1.28339 6.59122 1.28339H6.59122H6.59121H6.59121H6.5912H6.5912H6.59119H6.59119H6.59118H6.59118H6.59117H6.59117H6.59116H6.59116H6.59115H6.59115H6.59114H6.59114H6.59113H6.59113H6.59112H6.59112H6.59111H6.59111H6.5911H6.5911H6.59109H6.59109H6.59108H6.59108H6.59107H6.59107H6.59106H6.59106H6.59105H6.59105H6.59104H6.59104H6.59103H6.59103H6.59102H6.59102H6.59101H6.59101H6.591H6.591H6.59099H6.59099H6.59099H6.59098H6.59098H6.59097H6.59097H6.59096H6.59096H6.59095H6.59095H6.59094H6.59094H6.59093H6.59093H6.59092H6.59092H6.59091H6.59091H6.5909H6.5909H6.59089H6.59089H6.59088H6.59088H6.59087H6.59087H6.59086H6.59086H6.59085H6.59085H6.59084H6.59084H6.59083H6.59083H6.59082H6.59082H6.59081H6.59081H6.5908H6.5908H6.59079H6.59079H6.59078H6.59078H6.59077H6.59077H6.59076H6.59076H6.59075H6.59075H6.59074H6.59074H6.59073H6.59073H6.59072H6.59072H6.59071H6.59071H6.5907H6.5907H6.59069H6.59069H6.59068H6.59068H6.59067H6.59067H6.59067H6.59066H6.59066H6.59065H6.59065H6.59064H6.59064H6.59063H6.59063H6.59062H6.59062H6.59061H6.59061H6.5906H6.5906H6.59059H6.59059H6.59058H6.59058H6.59057H6.59057H6.59056H6.59056H6.59055H6.59055H6.59054H6.59054H6.59053H6.59053H6.59052H6.59052H6.59051H6.59051H6.5905H6.5905H6.59049H6.59049H6.59048H6.59048H6.59047H6.59047H6.59046H6.59046H6.59045H6.59045H6.59044H6.59044H6.59043H6.59043H6.59042H6.59042H6.59041H6.59041H6.5904H6.5904H6.59039H6.59039H6.59038H6.59038H6.59037H6.59037H6.59036H6.59036H6.59036H6.59035H6.59035H6.59034H6.59034H6.59033H6.59033H6.59032H6.59032H6.59031H6.59031H6.5903H6.5903H6.59029H6.59029H6.59028H6.59028H6.59027H6.59027H6.59026H6.59026H6.59025H6.59025H6.59024H6.59024H6.59023H6.59023H6.59022H6.59022H6.59021H6.59021H6.5902H6.5902H6.59019H6.59019H6.59018H6.59018H6.59017H6.59017H6.59016H6.59016H6.59015H6.59015H6.59014H6.59014H6.59013H6.59013H6.59012H6.59012H6.59011H6.59011H6.5901H6.5901H6.59009H6.59009H6.59008H6.59008H6.59007H6.59007H6.59007H6.59006H6.59005H6.59005H6.59004H6.59004H6.59004H6.59003H6.59003H6.59002H6.59002H6.59001H6.59001H6.59H6.59H6.58999H6.58999H6.58998H6.58998H6.58997H6.58997H6.58996H6.5899C5.98527 1.28369 5.5161 1.46226 5.17886 1.84462Z" fill="#1B1D22" stroke="black" stroke-width="0.261111"/>
</svg>
