<svg width="48" height="46" viewBox="0 0 48 46" fill="none" xmlns="http://www.w3.org/2000/svg">
<path fill-rule="evenodd" clip-rule="evenodd" d="M7.01276 22.782L7.01673 22.7807L7.0162 22.782L12.4656 20.9032L6.50919 39.2158L6.51927 39.1954L6.51263 39.2158L15.4392 26.6745L24.3361 14.175C24.4514 14.0135 24.5664 13.8519 24.6813 13.6903C24.7963 13.5288 24.9112 13.3672 25.0266 13.2057L21.6215 14.3426L18.2125 15.4809C18.7964 13.9109 19.3807 12.3406 19.9651 10.7702C20.5504 9.1973 21.1357 7.62438 21.7206 6.05188C24.1188 5.54293 26.6855 5.86605 28.8816 6.95092C29.9157 7.46154 30.8858 8.15633 31.5291 9.10894C32.927 11.1782 32.4705 14.0662 31.0946 16.1506C30.0978 17.6603 27.981 19.6039 26.8332 20.6577L26.776 20.7103C26.5218 20.8413 26.2666 20.9617 26.0119 21.0709C26.226 20.9791 26.4429 20.8945 26.6619 20.8152C26.2323 21.2103 25.9863 21.4421 26.0707 21.4175C26.3364 21.3412 26.6059 21.2756 26.8753 21.21L26.8753 21.21C27.3266 21.1001 27.7779 20.9903 28.2113 20.8299L28.4478 20.7426L28.4478 20.7426C31.3071 19.6872 34.1764 18.6282 36.6136 16.7399C39.4211 14.5651 41.6964 10.907 40.6286 7.26734C39.4076 3.10532 34.6263 0.92553 30.6281 0.301059C13.7697 -2.32908 0.14989 13.1287 0 13.7581C0.0441448 13.5749 1.31347 12.9876 2.01845 12.6614L2.01847 12.6614L2.01849 12.6614L2.01851 12.6614L2.01887 12.6613L2.01895 12.6612L2.01909 12.6611L2.0193 12.6611C2.22835 12.5643 2.38765 12.4906 2.45045 12.4573C3.54852 11.8764 4.66511 11.3272 5.79518 10.8099C8.04384 9.77975 10.3509 8.87905 12.7015 8.11111L7.01276 22.782ZM33.3059 21.0592C38.0232 19.6412 43.4597 20.9537 46.1762 24.6437C48.406 27.6706 48.3286 31.8979 46.4356 35.0638C45.031 37.4143 42.9022 38.9747 40.5798 40.3525C38.0073 41.8781 35.2442 43.0578 32.3732 43.8999C31.224 44.3084 30.0079 44.5591 28.799 44.7841C26.2896 45.2528 23.7246 45.4872 21.1731 45.5157C20.204 45.5272 19.2186 45.5225 18.2554 45.3933C15.9985 45.2384 13.7545 44.9004 11.5584 44.3827C10.9876 44.2495 10.4315 44.1052 9.89254 43.9529C7.46284 43.2711 5.10436 42.3651 2.86622 41.2398C1.91063 40.7647 1.29507 40.4072 1.10696 40.2955C1.08659 40.2838 1.06623 40.2721 1.04588 40.2604C1.04474 40.2598 1.04492 40.2593 1.04637 40.2591C1.04597 40.2589 1.04577 40.2587 1.04577 40.2587C1.04577 40.2587 1.04626 40.2588 1.04723 40.259C1.07722 40.2563 1.42731 40.3043 1.9782 40.3798L1.9787 40.3798L1.97953 40.38L1.97971 40.38L1.97982 40.38C2.92339 40.5093 4.45485 40.7192 5.97604 40.8935C7.76188 41.0611 9.90551 41.1993 12.1871 41.2114C12.411 41.2082 12.636 41.2037 12.8619 41.198L15.1807 35.2437L11.1644 36.5171L11.1646 36.5169L11.1643 36.517L22.2545 21.4192L22.2517 21.4271L22.2563 21.4209L18.5992 32.1096L21.8132 31.0558L21.8121 31.0585L21.815 31.0575L21.8096 31.0647L17.8403 40.828C23.4603 40.1198 29.0938 38.3184 32.8259 34.4427C32.8481 34.4196 32.8701 34.3966 32.8921 34.3735C33.2611 33.9791 33.6062 33.5656 33.9246 33.1324C33.9734 33.0636 34.0212 32.9942 34.0679 32.9243C34.6183 32.0667 35.7863 29.6416 34.7911 27.7773C34.6699 27.5623 34.5268 27.3583 34.3641 27.1668C34.35 27.151 34.3358 27.1354 34.3213 27.1197C33.4542 26.1804 31.9055 25.4247 28.9215 25.433C27.4852 25.5039 25.9561 25.7069 25.0445 25.8279C24.5073 25.8993 24.1845 25.9421 24.2216 25.9127C26.9482 23.7379 29.9359 22.0721 33.3059 21.0592Z" fill="#1B1D22"/>
</svg>
